<?xml version="1.0" encoding="UTF-8" standalone="no"?>
<!-- Created with Inkscape (http://www.inkscape.org/) -->

<svg
   xmlns:dc="http://purl.org/dc/elements/1.1/"
   xmlns:cc="http://creativecommons.org/ns#"
   xmlns:rdf="http://www.w3.org/1999/02/22-rdf-syntax-ns#"
   xmlns:svg="http://www.w3.org/2000/svg"
   xmlns="http://www.w3.org/2000/svg"
   xmlns:sodipodi="http://sodipodi.sourceforge.net/DTD/sodipodi-0.dtd"
   xmlns:inkscape="http://www.inkscape.org/namespaces/inkscape"
   width="192.45595"
   height="139.36237"
   id="svg2"
   version="1.1"
   inkscape:version="0.48.1 r9760"
   sodipodi:docname="InquiryCycle.svg">
  <defs
     id="defs4" />
  <sodipodi:namedview
     id="base"
     pagecolor="#ffffff"
     bordercolor="#666666"
     borderopacity="1.0"
     inkscape:pageopacity="0.0"
     inkscape:pageshadow="2"
     inkscape:zoom="1.2328358"
     inkscape:cx="-69.009482"
     inkscape:cy="43.15141"
     inkscape:document-units="px"
     inkscape:current-layer="layer1"
     showgrid="false"
     inkscape:window-width="1135"
     inkscape:window-height="606"
     inkscape:window-x="58"
     inkscape:window-y="65"
     inkscape:window-maximized="0"
     fit-margin-top="0"
     fit-margin-left="0"
     fit-margin-right="0"
     fit-margin-bottom="0"
     showguides="true"
     inkscape:guide-bbox="true"
     inkscape:snap-smooth-nodes="true" />
  <metadata
     id="metadata7">
    <rdf:RDF>
      <cc:Work
         rdf:about="">
        <dc:format>image/svg+xml</dc:format>
        <dc:type
           rdf:resource="http://purl.org/dc/dcmitype/StillImage" />
        <dc:title />
      </cc:Work>
    </rdf:RDF>
  </metadata>
  <g
     inkscape:label="Layer 1"
     inkscape:groupmode="layer"
     id="layer1"
     transform="translate(-294.42409,-65.641247)">
    <g
       transform="scale(1.0380022,0.9633891)"
       style="font-size:12.62703991px;font-style:normal;font-variant:normal;font-weight:bold;font-stretch:normal;text-align:start;line-height:125%;letter-spacing:0px;word-spacing:0px;writing-mode:lr-tb;text-anchor:start;fill:#800080;fill-opacity:1;stroke:none;font-family:Marker Felt;-inkscape-font-specification:Marker Felt Bold"
       id="text2985">
      <path
         d="m 396.23192,84.198699 c -0.008,0.07576 -0.0253,0.25675 -0.0505,0.542963 -0.008,0.151524 -0.0421,0.265167 -0.10101,0.34093 -0.0421,0.02525 -0.11366,0.03788 -0.21466,0.03788 -0.27781,0 -0.62295,-0.07155 -1.03542,-0.21466 -0.44616,-0.134688 -0.74921,-0.29463 -0.90915,-0.479827 -0.0674,-0.07576 -0.13469,-0.328303 -0.20203,-0.757623 -0.0926,-0.564006 -0.19783,-1.031206 -0.31568,-1.401601 -0.31989,0.04209 -0.78709,0.159945 -1.4016,0.353557 -0.61452,0.185199 -1.01437,0.340932 -1.19957,0.467201 -0.12627,0.361976 -0.29463,0.808131 -0.50508,1.338466 -0.0253,0.117852 -0.0547,0.227287 -0.0884,0.328303 -0.0253,0.109434 -0.0968,0.197823 -0.21466,0.265168 -0.0253,0.01684 -0.0631,0.02525 -0.11364,0.02525 -0.20204,-1e-6 -0.54296,-0.105226 -1.02279,-0.315676 -0.47141,-0.210451 -0.71553,-0.349348 -0.73237,-0.416693 -0.0337,-0.117851 0.0463,-0.408273 0.23991,-0.871265 0.26938,-0.67344 0.42511,-1.085923 0.4672,-1.23745 -0.17677,-0.176776 -0.26516,-0.353554 -0.26516,-0.530336 0,-0.04209 0.004,-0.08839 0.0126,-0.138897 0.0168,-0.101013 0.27359,-0.282001 0.77025,-0.542963 l 1.62889,-5.568525 c 0.0253,-0.101007 0.0295,-0.286203 0.0126,-0.555589 -0.0168,-0.227277 0.008,-0.370383 0.0758,-0.42932 0.0421,-0.04208 0.1431,-0.06312 0.30305,-0.06314 0.39564,1e-5 0.95965,0.101027 1.69202,0.303049 0.73237,0.202043 1.1701,0.38303 1.31322,0.542963 0.0505,0.934409 0.2399,2.336009 0.56821,4.204804 0.4209,2.306542 0.85022,3.897548 1.28796,4.773021 m -3.29566,-3.83862 c -0.10944,-0.530331 -0.17678,-0.879679 -0.20203,-1.048044 -0.0926,-0.564002 -0.15574,-1.149054 -0.18941,-1.755159 -0.16836,0.41249 -0.36618,0.984915 -0.59347,1.717278 -0.24412,0.766045 -0.3746,1.245872 -0.39143,1.439482 0.15993,-0.06734 0.61872,-0.185192 1.37634,-0.353557"
         style=""
         id="path3671" />
      <path
         d="m 401.30996,83.55472 c 0,0.462992 -0.15574,0.833385 -0.4672,1.11118 -0.30305,0.277794 -0.73237,0.420901 -1.28796,0.429319 -0.13469,0 -0.282,-0.02105 -0.44194,-0.06314 -0.28622,-0.07576 -0.43774,-0.117853 -0.45458,-0.126271 -0.15152,-0.03367 -0.30726,-0.07155 -0.4672,-0.113643 -0.15152,-0.03367 -0.282,-0.09681 -0.39143,-0.189406 -0.1852,-0.16836 -0.36619,-0.399855 -0.54297,-0.694487 -0.1431,-0.235703 -0.282,-0.475617 -0.41669,-0.719741 -0.13469,-0.244121 -0.20203,-0.391436 -0.20203,-0.441946 0,-0.117851 0.0842,-0.20624 0.25254,-0.265168 0.0421,-0.01683 0.11785,-0.02525 0.22729,-0.02525 0.25254,2e-6 0.56821,0.02947 0.94702,0.08839 0.38723,0.05051 0.59768,0.09681 0.63136,0.138897 0.0337,0.03367 0.08,0.273588 0.13889,0.719742 0.0505,0.38723 0.1389,0.580844 0.26517,0.580843 0.19361,10e-7 0.29042,-0.260957 0.29042,-0.782876 0,-0.665022 -0.17678,-1.081714 -0.53033,-1.250077 -0.80813,-0.378808 -1.33847,-0.715529 -1.59101,-1.010163 -0.31147,-0.361971 -0.4672,-0.909142 -0.4672,-1.641515 0,-0.479822 0.12627,-0.930186 0.37881,-1.351094 0.25254,-0.429312 0.55138,-0.686061 0.89652,-0.770249 0.15152,-0.03366 0.63977,0.126278 1.46474,0.479827 0.0758,0.02526 0.29883,0.07156 0.66923,0.138898 0.26096,0.05052 0.44615,0.138904 0.55559,0.265168 0.15994,0.193621 0.25254,0.500878 0.2778,0.921774 0.008,0.311472 0.0126,0.622939 0.0126,0.934401 0.0589,0.286217 0.0884,0.454577 0.0884,0.505081 0,0.235709 -0.11365,0.370397 -0.34093,0.404065 -0.11786,0.01684 -0.34935,-0.02946 -0.69449,-0.138897 -0.37881,-0.126266 -0.61872,-0.256745 -0.71974,-0.391438 -0.0252,-0.03367 -0.0505,-0.349344 -0.0758,-0.947028 -0.0253,-0.564002 -0.0842,-0.846006 -0.17678,-0.846012 -0.12627,6e-6 -0.24412,0.164158 -0.35355,0.492455 -0.10944,0.328308 -0.16416,0.669238 -0.16416,1.02279 0,0.44616 0.0968,0.728163 0.29043,0.846012 0.41248,0.22729 0.82075,0.458785 1.22482,0.694487 0.41248,0.227289 0.69869,0.462994 0.85864,0.707114 0.21044,0.319887 0.31567,0.749206 0.31567,1.287958"
         style=""
         id="path3673" />
      <path
         d="m 408.37242,83.567347 c 0.0168,0.159944 -0.14311,0.450365 -0.47982,0.871266 -0.33673,0.420901 -0.59769,0.618725 -0.78288,0.593471 -0.36198,-0.05051 -1.12802,-1.026999 -2.29812,-2.929473 -0.0842,0.0926 -0.22729,0.239916 -0.42932,0.441946 l 0,1.489991 c 0,0.04209 0.008,0.117853 0.0253,0.227286 0.0253,0.109435 0.0421,0.189406 0.0505,0.239914 0.0253,0.286213 -0.0337,0.471409 -0.17678,0.55559 -0.0758,0.04209 -0.19782,0.06314 -0.36618,0.06314 -0.31989,0 -0.63135,-0.05893 -0.9344,-0.176779 -0.35356,-0.134688 -0.53034,-0.29463 -0.53034,-0.479827 l 0,-9.369264 c 0,-0.134678 0.0421,-0.281994 0.12627,-0.441946 0.0842,-0.159932 0.18099,-0.260949 0.29042,-0.303049 0.0253,-0.0084 0.0589,-0.01262 0.10102,-0.01263 0.21887,1e-5 0.52192,0.07577 0.90915,0.227287 0.39564,0.143116 0.61451,0.269386 0.6566,0.378811 0.0253,0.05894 0.0379,0.109444 0.0379,0.151524 0,0.06735 -0.0337,0.155743 -0.10101,0.265168 -0.0673,0.101026 -0.10102,0.197833 -0.10102,0.290422 l 0,4.381583 1.8688,-2.563289 c 0.10943,-0.151517 0.24833,-0.231488 0.4167,-0.239914 0.15993,-0.0084 0.38301,0.09261 0.66923,0.303049 0.31988,0.235712 0.48403,0.467207 0.49245,0.694487 0.008,0.09261 -0.18941,0.420908 -0.59347,0.984909 -0.62294,0.892316 -0.98912,1.422651 -1.09855,1.591007 l 1.64152,2.260241 c 0.0589,0.08418 0.18098,0.172571 0.36618,0.265167 0.15152,0.07576 0.23149,0.155735 0.23991,0.239914"
         style=""
         id="path3675" />
    </g>
    <g
       transform="scale(1.0380022,0.9633891)"
       style="font-size:12.62703991px;font-style:normal;font-variant:normal;font-weight:bold;font-stretch:normal;text-align:start;line-height:125%;letter-spacing:0px;word-spacing:0px;writing-mode:lr-tb;text-anchor:start;fill:#800080;fill-opacity:1;stroke:none;font-family:Marker Felt;-inkscape-font-specification:Marker Felt Bold"
       id="text2989">
      <path
         d="m 411.46734,147.94714 c -10e-6,0.0589 -0.0211,0.13891 -0.0631,0.23991 -0.0337,0.10103 -0.0547,0.16416 -0.0631,0.18941 -0.0505,0.16837 -0.10101,0.42933 -0.15152,0.78287 l 0,7.75301 c 0,0.10101 0.0252,0.19361 0.0758,0.27779 0.0505,0.0758 0.0758,0.1389 0.0758,0.18941 0,0.53875 -0.10101,0.82917 -0.30304,0.87126 -0.0758,0.0168 -0.3704,-0.0379 -0.8839,-0.16415 -0.53875,-0.13469 -0.85022,-0.23991 -0.9344,-0.31567 -0.18519,-0.15995 -0.27779,-0.30726 -0.27779,-0.44195 0,-0.0337 0.0168,-0.0716 0.0505,-0.11364 0.0337,-0.0421 0.0505,-0.11365 0.0505,-0.21466 l 0,-8.90207 c 0,-0.0505 -0.0168,-0.101 -0.0505,-0.15152 -0.0253,-0.0589 -0.0379,-0.11363 -0.0379,-0.16415 0.0168,-0.20203 0.17257,-0.33671 0.4672,-0.40407 0.0926,-0.0168 0.28622,-0.0168 0.58085,0 0.36197,0.0253 0.66502,0.0716 0.90915,0.1389 0.37039,0.10103 0.55558,0.24413 0.55559,0.42932"
         style=""
         id="path3648" />
      <path
         d="m 418.35953,156.96285 c 0.0673,0.15994 0.10101,0.31988 0.10102,0.47982 -1e-5,0.25254 -0.0968,0.42511 -0.29043,0.51771 -0.0589,0.0253 -0.16415,0.0379 -0.31567,0.0379 -0.28622,0 -0.62715,-0.0463 -1.02279,-0.13889 -0.39565,-0.0842 -0.63557,-0.16837 -0.71974,-0.25255 -0.0421,-0.0505 -0.0631,-0.10522 -0.0631,-0.16415 0,-0.0926 0.0631,-0.23991 0.18941,-0.44194 0.12626,-0.21045 0.1894,-0.36198 0.1894,-0.45458 0.0168,-3.31669 -0.008,-4.98767 -0.0758,-5.01293 -0.11786,-0.0421 -0.40828,0.33673 -0.87127,1.13643 -0.48824,0.84181 -0.73237,1.47737 -0.73236,1.90668 l 0,2.36126 c 0.10943,0.10944 0.16414,0.24412 0.16415,0.40407 -1e-5,0.31988 -0.14311,0.53875 -0.42932,0.6566 -0.0337,0.0168 -0.0842,0.0253 -0.15153,0.0253 -0.22729,0 -0.5598,-0.0547 -0.99753,-0.16415 -0.43774,-0.10102 -0.68186,-0.1852 -0.73237,-0.25255 -0.0505,-0.0673 -0.0758,-0.1431 -0.0758,-0.22728 0,-0.0842 0.0463,-0.1852 0.13889,-0.30305 0.10102,-0.11785 0.15153,-0.19362 0.15153,-0.22729 l 0,-5.87157 c 0,-0.0673 -0.0337,-0.15573 -0.10102,-0.26517 -0.0673,-0.10943 -0.0884,-0.20202 -0.0631,-0.27779 0.0505,-0.17678 0.18098,-0.29042 0.39143,-0.34093 0.13469,-0.0337 0.45037,0.0126 0.94703,0.13889 0.53875,0.1347 0.83339,0.2736 0.8839,0.4167 0.0337,0.0926 0.021,0.2315 -0.0379,0.41669 -0.0926,0.29464 -0.1389,0.463 -0.13889,0.50508 -1e-5,0.0926 0.0168,0.19362 0.0505,0.30305 0.12626,-0.4209 0.30304,-0.7955 0.53033,-1.12381 0.27779,-0.39564 0.55559,-0.59346 0.83339,-0.59347 0.2862,1e-5 0.6566,0.10102 1.11118,0.30305 0.45456,0.19362 0.71552,0.3704 0.78287,0.53034 0.2357,0.53876 0.35355,2.52962 0.35356,5.97259"
         style=""
         id="path3650" />
      <path
         d="m 425.24442,150.80085 c -0.32831,0.83339 -0.70291,2.10872 -1.1238,3.82599 -0.37882,1.54892 -0.56402,2.4286 -0.55559,2.63905 -10e-6,0.21046 -10e-6,0.4167 0,0.61873 -0.008,0.26938 -0.10944,0.42511 -0.30305,0.4672 -0.19362,0.0337 -0.6524,-0.0463 -1.37635,-0.23991 -0.71553,-0.19362 -1.11539,-0.34935 -1.19957,-0.4672 -0.0421,-0.0674 -0.0631,-0.15995 -0.0631,-0.2778 -10e-6,-0.11785 -0.008,-0.19782 -0.0253,-0.23991 -0.38723,-1.22903 -0.66923,-2.23078 -0.84601,-3.00524 -0.21045,-0.95965 -0.36198,-2.02032 -0.45457,-3.18201 0,-0.0252 -0.008,-0.0968 -0.0253,-0.21466 -0.0168,-0.0926 -0.0253,-0.16836 -0.0253,-0.22729 0,-0.19361 0.0842,-0.31988 0.25254,-0.37881 0.0758,-0.0252 0.39985,0.0337 0.97228,0.17678 0.57243,0.13469 0.88389,0.25676 0.9344,0.36618 0.0253,0.0505 0.0379,0.10944 0.0379,0.17678 0,0.0842 -0.0252,0.19362 -0.0758,0.3283 -0.0505,0.12628 -0.0758,0.21046 -0.0758,0.25254 0.0926,0.65662 0.18098,1.23746 0.26517,1.74254 0.20203,1.2122 0.36197,1.93194 0.47982,2.15922 0.12627,-0.73237 0.34935,-1.6836 0.66924,-2.85371 0.15152,-0.564 0.30725,-1.12801 0.4672,-1.69202 0.0253,-0.15152 0.0505,-0.30305 0.0758,-0.45458 0.0589,-0.16835 0.16415,-0.27358 0.31568,-0.31567 0.10101,-0.0337 0.37038,0.0421 0.80813,0.22728 0.47982,0.20204 0.77024,0.39145 0.87126,0.56822"
         style=""
         id="path3652" />
      <path
         d="m 430.8382,155.56124 c 0.0758,0.12628 -0.0884,0.50088 -0.49245,1.12381 -0.43774,0.66502 -0.86706,1.11539 -1.28796,1.35109 -0.0505,0.0253 -0.12627,0.0379 -0.22729,0.0379 -0.3283,0 -0.75762,-0.10101 -1.28796,-0.30304 -0.564,-0.20204 -0.9344,-0.42091 -1.11118,-0.65661 -0.48824,-0.63135 -0.73236,-1.50682 -0.73236,-2.62642 0,-1.06067 0.21466,-1.99507 0.64398,-2.80321 0.46299,-0.88388 1.05225,-1.33425 1.76778,-1.35109 0.26096,-0.008 0.57663,0.0589 0.94703,0.20203 0.45457,0.17679 0.82917,0.4167 1.12381,0.71974 0.0757,0.0758 0.14731,0.30306 0.21466,0.68186 0.0842,0.40407 0.12626,0.79972 0.12627,1.18695 -1e-5,0.57243 -0.0926,0.96807 -0.2778,1.18694 -0.86706,0.27779 -1.75095,0.43353 -2.65168,0.4672 -0.0168,0.41248 0.0337,0.84601 0.15153,1.30058 0.11785,0.45458 0.23991,0.68607 0.36618,0.69449 0.16836,0.008 0.37039,-0.13048 0.6061,-0.41669 0.21045,-0.24412 0.34093,-0.45037 0.39144,-0.61873 0.0589,-0.25254 0.13889,-0.51349 0.23991,-0.78287 0.13469,-0.0168 0.39985,0.0505 0.7955,0.20203 0.39565,0.15153 0.62714,0.28621 0.69449,0.40406 m -2.24761,-3.86387 c -0.14311,-0.0168 -0.34514,0.21046 -0.6061,0.68186 -0.25254,0.47141 -0.39986,0.92178 -0.44195,1.35109 0.37881,-0.0168 0.68186,-0.10943 0.90915,-0.27779 0.13469,-0.10101 0.20203,-0.52191 0.20203,-1.26271 0,-0.31146 -0.021,-0.47561 -0.0631,-0.49245"
         style=""
         id="path3654" />
      <path
         d="m 436.49867,156.5209 c -1e-5,0.46299 -0.15574,0.83338 -0.4672,1.11118 -0.30306,0.27779 -0.73238,0.4209 -1.28796,0.42932 -0.13469,0 -0.28201,-0.0211 -0.44195,-0.0631 -0.28621,-0.0758 -0.43774,-0.11785 -0.45457,-0.12627 -0.15153,-0.0337 -0.30726,-0.0716 -0.4672,-0.11364 -0.15153,-0.0337 -0.28201,-0.0968 -0.39144,-0.18941 -0.1852,-0.16836 -0.36619,-0.39985 -0.54296,-0.69448 -0.14311,-0.23571 -0.28201,-0.47562 -0.4167,-0.71975 -0.13468,-0.24412 -0.20203,-0.39143 -0.20203,-0.44194 0,-0.11785 0.0842,-0.20624 0.25254,-0.26517 0.0421,-0.0168 0.11785,-0.0252 0.22729,-0.0252 0.25254,0 0.56821,0.0295 0.94703,0.0884 0.38722,0.0505 0.59768,0.0968 0.63135,0.13889 0.0337,0.0337 0.08,0.27359 0.1389,0.71974 0.0505,0.38723 0.13889,0.58085 0.26516,0.58085 0.19362,0 0.29042,-0.26096 0.29043,-0.78288 -1e-5,-0.66502 -0.17678,-1.08171 -0.53034,-1.25008 -0.80813,-0.3788 -1.33847,-0.71552 -1.59101,-1.01016 -0.31146,-0.36197 -0.4672,-0.90914 -0.4672,-1.64151 0,-0.47983 0.12627,-0.93019 0.37881,-1.3511 0.25254,-0.42931 0.55138,-0.68606 0.89652,-0.77025 0.15153,-0.0337 0.63977,0.12628 1.46474,0.47983 0.0758,0.0253 0.29884,0.0716 0.66923,0.1389 0.26096,0.0505 0.44616,0.1389 0.55559,0.26517 0.15994,0.19362 0.25254,0.50088 0.2778,0.92177 0.008,0.31147 0.0126,0.62294 0.0126,0.9344 0.0589,0.28622 0.0884,0.45458 0.0884,0.50508 -10e-6,0.23571 -0.11365,0.3704 -0.34093,0.40407 -0.11786,0.0168 -0.34936,-0.0295 -0.69449,-0.1389 -0.37882,-0.12627 -0.61873,-0.25674 -0.71974,-0.39144 -0.0253,-0.0337 -0.0505,-0.34934 -0.0758,-0.94703 -0.0252,-0.564 -0.0842,-0.846 -0.17677,-0.84601 -0.12628,1e-5 -0.24413,0.16416 -0.35356,0.49246 -0.10944,0.32831 -0.16416,0.66924 -0.16415,1.02279 -10e-6,0.44616 0.0968,0.72816 0.29042,0.84601 0.41248,0.22729 0.82075,0.45879 1.22482,0.69449 0.41248,0.22729 0.69869,0.46299 0.85864,0.70711 0.21045,0.31989 0.31567,0.74921 0.31568,1.28796"
         style=""
         id="path3656" />
      <path
         d="m 441.61459,151.58373 c -0.008,0.15153 -0.0589,0.28622 -0.15152,0.40406 -0.0926,0.11786 -0.19362,0.17679 -0.30305,0.17678 -0.0337,1e-5 -0.0631,-0.004 -0.0884,-0.0126 -0.11786,-0.0421 -0.38303,-0.0631 -0.7955,-0.0631 l 0,4.98768 c -1e-5,-0.008 0.0252,0.0589 0.0758,0.20203 0.0589,0.14311 0.0884,0.26938 0.0884,0.37881 -10e-6,0.24413 -0.16837,0.3746 -0.50508,0.39144 -0.17679,0.008 -0.50088,-0.0673 -0.97229,-0.22729 -0.5135,-0.16836 -0.78708,-0.32409 -0.82075,-0.4672 -0.0168,-0.0589 0.0126,-0.18098 0.0884,-0.36618 0.0758,-0.19361 0.11365,-0.34093 0.11365,-0.44195 l 0,-4.46997 -0.42932,0 c -0.15994,1e-5 -0.35777,-0.13889 -0.59347,-0.41669 -0.23571,-0.28621 -0.35356,-0.51349 -0.35356,-0.68186 0,-0.12627 0.0463,-0.23991 0.1389,-0.34093 0.10101,-0.10101 0.21045,-0.15152 0.3283,-0.15153 l 0.90915,0 0,-1.13643 c -0.12627,-0.16835 -0.18941,-0.34934 -0.18941,-0.54296 0,-0.17677 0.0758,-0.28621 0.22729,-0.32831 0.0758,-0.0168 0.18098,-0.0252 0.31568,-0.0252 0.31146,10e-6 0.67343,0.0505 1.08592,0.15152 0.4209,0.0926 0.69448,0.18942 0.82076,0.29043 0.0589,0.0505 0.0884,0.10944 0.0884,0.17678 -10e-6,0.0842 -0.0673,0.21045 -0.20204,0.37881 -0.13469,0.16837 -0.20624,0.28622 -0.21465,0.35355 l 0,0.68186 0.40406,0 c 0.0842,1e-5 0.26096,0.15154 0.53034,0.45458 0.26937,0.30305 0.40406,0.51771 0.40406,0.64398"
         style=""
         id="path3658" />
      <path
         d="m 444.94418,148.79315 c 0.008,0.0169 0.0126,0.0505 0.0126,0.10102 0,0.1852 -0.0379,0.42512 -0.11364,0.71974 -0.0842,0.31989 -0.16416,0.49667 -0.23992,0.53033 -0.0842,0.0337 -0.44615,-0.0547 -1.08592,-0.26516 -0.63977,-0.21886 -0.9807,-0.3746 -1.02279,-0.4672 -0.0253,-0.0421 -0.0379,-0.10522 -0.0379,-0.18941 0,-0.22728 0.0589,-0.46719 0.17678,-0.71974 0.13468,-0.2862 0.28621,-0.44615 0.45457,-0.47983 0.19361,-0.0337 0.53033,0.0421 1.01016,0.22729 0.47983,0.17679 0.76183,0.35777 0.84601,0.54296 m -0.0379,8.72529 c 0.0337,0.30304 -0.0716,0.49245 -0.31567,0.56821 -0.0421,0.008 -0.10102,0.0126 -0.17678,0.0126 -0.30305,0 -0.67765,-0.0631 -1.12381,-0.18941 -0.47983,-0.13469 -0.76183,-0.27779 -0.84601,-0.42932 -0.0421,-0.0673 -0.004,-0.19782 0.11364,-0.39143 0.0758,-0.12627 0.11365,-0.35777 0.11365,-0.69449 l 0,-5.30336 c -0.10102,-0.31988 -0.15153,-0.53454 -0.15153,-0.64398 0,-0.10942 0.15574,-0.16414 0.4672,-0.16415 0.25254,1e-5 0.60189,0.08 1.04805,0.23992 0.45457,0.15153 0.72815,0.28621 0.82076,0.40406 0.0253,0.0337 0.0379,0.0758 0.0379,0.12627 -1e-5,0.0674 -0.0505,0.19362 -0.15153,0.37881 -0.0926,0.1852 -0.1389,0.3241 -0.1389,0.41669 l 0,5.07607 c 0,0.0842 0.0463,0.18941 0.1389,0.31568 0.10102,0.12627 0.15573,0.21887 0.16415,0.2778"
         style=""
         id="path3660" />
      <path
         d="m 451.31255,151.09127 c 0,0.008 -0.0463,0.0926 -0.1389,0.25254 -0.0589,0.11786 -0.0884,0.21046 -0.0884,0.2778 l 0,5.53064 c -10e-6,1.39739 -0.51772,2.29391 -1.55313,2.68956 -0.47983,0.18519 -0.91757,0.27779 -1.31321,0.2778 -0.57243,-1e-5 -1.06909,-0.19362 -1.48999,-0.58085 -0.11786,-0.10102 -0.31989,-0.31989 -0.6061,-0.6566 -0.0168,-0.0168 -0.0968,-0.0968 -0.23991,-0.23992 -0.0842,-0.0926 -0.13048,-0.1894 -0.1389,-0.29042 -0.008,-0.12627 0.11785,-0.22729 0.37881,-0.30305 0.0337,-0.008 0.0842,-0.0126 0.15152,-0.0126 0.1852,0 0.40407,0.0379 0.65661,0.11365 0.26096,0.0758 0.44615,0.16836 0.55559,0.27779 0.13469,0.16836 0.27358,0.34093 0.41669,0.51771 0.14311,0.17678 0.31147,0.27358 0.50508,0.29042 0.34514,0.0337 0.56822,-0.20203 0.66924,-0.70711 0.0505,-0.24413 0.0758,-0.67765 0.0758,-1.30059 -0.0253,0.0337 -0.10523,0.14311 -0.23992,0.32831 -0.10101,0.13468 -0.1894,0.23149 -0.26516,0.29042 -0.0926,0.0842 -0.18941,0.12627 -0.29042,0.12627 -0.44616,0 -0.82076,-0.12206 -1.12381,-0.36619 -0.90073,-0.75762 -1.35109,-1.873 -1.35109,-3.34616 0,-0.9344 0.19782,-1.77199 0.59347,-2.51278 0.41248,-0.79129 0.95123,-1.28795 1.61626,-1.48999 0.0505,-0.0168 0.0968,-0.0252 0.13889,-0.0253 0.13469,1e-5 0.28621,0.0632 0.45458,0.18941 0.1431,0.10944 0.28621,0.22308 0.42932,0.34093 0.0505,-0.1431 0.10101,-0.282 0.15152,-0.41669 0.0589,-0.1431 0.14731,-0.22307 0.26517,-0.23992 0.17677,-0.0252 0.48824,0.0337 0.9344,0.17678 0.45457,0.1347 0.71132,0.25255 0.77025,0.35356 0.10101,0.16837 0.12626,0.31989 0.0758,0.45457 m -2.23498,3.10625 c 0.0673,-0.58084 0.10101,-1.05645 0.10101,-1.42685 0,-0.68186 -0.10944,-1.06488 -0.3283,-1.14906 -0.17678,-0.0673 -0.39144,0.2315 -0.64398,0.89652 -0.25254,0.66503 -0.37881,1.27112 -0.37881,1.81829 0,0.99333 0.11364,1.78042 0.34093,2.36126 0.50508,-0.78288 0.80813,-1.61626 0.90915,-2.50016"
         style=""
         id="path3662" />
      <path
         d="m 458.16844,157.49318 c -0.008,0.11785 -0.0589,0.21887 -0.15152,0.30305 -0.0926,0.0842 -0.19783,0.11785 -0.31568,0.10102 -1.04384,-0.14311 -1.62468,-0.34093 -1.74253,-0.59347 -0.0168,-0.0337 -0.0253,-0.0673 -0.0252,-0.10102 -1e-5,-0.0421 0.0168,-0.0884 0.0505,-0.1389 0.0421,-0.0505 0.0673,-0.0926 0.0758,-0.12627 0.008,-0.0421 0.0252,-0.08 0.0505,-0.11364 0.0168,-0.0674 0.021,-0.21466 0.0126,-0.44195 -0.10102,0.0758 -0.25254,0.2778 -0.45457,0.6061 -0.21046,0.36197 -0.39565,0.61452 -0.55559,0.75762 -0.26938,0.25254 -0.57664,0.37881 -0.92178,0.37881 -0.20203,0 -0.39985,-0.08 -0.59347,-0.23991 -0.0926,-0.0758 -0.25675,-0.23991 -0.49245,-0.49246 -0.40407,-0.45457 -0.62294,-0.7029 -0.65661,-0.74499 -0.17678,-0.2357 -0.26517,-0.45878 -0.26517,-0.66923 0,-0.0673 0.008,-0.13469 0.0253,-0.20204 0.15994,-0.74078 0.6566,-1.44368 1.48999,-2.10871 0.6061,-0.47983 1.46473,-0.98912 2.57592,-1.52787 -10e-6,-0.26937 -0.0673,-0.44194 -0.20204,-0.51771 -0.0842,-0.0505 -0.37881,0.0463 -0.88389,0.29042 -0.50508,0.23571 -0.85864,0.43774 -1.06067,0.6061 -0.0673,0.0673 -0.17678,0.15994 -0.3283,0.27779 -0.14311,0.0842 -0.27359,0.10944 -0.39144,0.0758 -0.0926,-0.0252 -0.29043,-0.17677 -0.59347,-0.45457 -0.30305,-0.27779 -0.4672,-0.46298 -0.49246,-0.55559 -0.0673,-0.22728 0.004,-0.40406 0.21466,-0.53033 0.008,-0.008 0.17678,-0.0589 0.50508,-0.15153 0.31147,-0.16835 0.62294,-0.33671 0.9344,-0.50508 0.65661,-0.31146 1.2122,-0.47982 1.66677,-0.50508 0.19361,-0.008 0.41248,0.0926 0.65661,0.30305 0.21886,0.19362 0.43773,0.38723 0.65661,0.58084 0.22728,0.1852 0.45877,0.36619 0.69448,0.54296 0.26937,0.23571 0.40406,0.463 0.40407,0.68186 l 0,4.77302 c 0.0842,0.21887 0.12205,0.36619 0.11364,0.44195 m -2.02032,-3.68709 c -0.41249,0.15994 -0.76605,0.40406 -1.06068,0.73236 -0.21887,0.26938 -0.43774,0.53455 -0.6566,0.79551 -0.17678,0.17678 -0.34514,0.40827 -0.50508,0.69448 -0.15153,0.2778 -0.22729,0.48404 -0.22729,0.61873 0,0.0673 0.0253,0.10102 0.0758,0.10102 0.17678,0 0.57243,-0.37881 1.18694,-1.13644 0.61452,-0.76604 1.01016,-1.36792 1.18695,-1.80566"
         style=""
         id="path3664" />
      <path
         d="m 463.31732,151.58373 c -0.008,0.15153 -0.0589,0.28622 -0.15153,0.40406 -0.0926,0.11786 -0.19362,0.17679 -0.30305,0.17678 -0.0337,1e-5 -0.0631,-0.004 -0.0884,-0.0126 -0.11785,-0.0421 -0.38302,-0.0631 -0.7955,-0.0631 l 0,4.98768 c 0,-0.008 0.0252,0.0589 0.0758,0.20203 0.0589,0.14311 0.0884,0.26938 0.0884,0.37881 0,0.24413 -0.16836,0.3746 -0.50508,0.39144 -0.17678,0.008 -0.50088,-0.0673 -0.97228,-0.22729 -0.5135,-0.16836 -0.78709,-0.32409 -0.82076,-0.4672 -0.0168,-0.0589 0.0126,-0.18098 0.0884,-0.36618 0.0758,-0.19361 0.11364,-0.34093 0.11364,-0.44195 l 0,-4.46997 -0.42932,0 c -0.15994,1e-5 -0.35776,-0.13889 -0.59347,-0.41669 -0.2357,-0.28621 -0.35356,-0.51349 -0.35355,-0.68186 -10e-6,-0.12627 0.0463,-0.23991 0.13889,-0.34093 0.10102,-0.10101 0.21045,-0.15152 0.32831,-0.15153 l 0.90914,0 0,-1.13643 c -0.12627,-0.16835 -0.1894,-0.34934 -0.1894,-0.54296 0,-0.17677 0.0758,-0.28621 0.22728,-0.32831 0.0758,-0.0168 0.18099,-0.0252 0.31568,-0.0252 0.31146,10e-6 0.67344,0.0505 1.08593,0.15152 0.42089,0.0926 0.69448,0.18942 0.82075,0.29043 0.0589,0.0505 0.0884,0.10944 0.0884,0.17678 0,0.0842 -0.0673,0.21045 -0.20203,0.37881 -0.13469,0.16837 -0.20625,0.28622 -0.21466,0.35355 l 0,0.68186 0.40406,0 c 0.0842,1e-5 0.26096,0.15154 0.53034,0.45458 0.26937,0.30305 0.40406,0.51771 0.40407,0.64398"
         style=""
         id="path3666" />
      <path
         d="m 468.94128,155.56124 c 0.0758,0.12628 -0.0884,0.50088 -0.49245,1.12381 -0.43775,0.66502 -0.86706,1.11539 -1.28796,1.35109 -0.0505,0.0253 -0.12628,0.0379 -0.22729,0.0379 -0.3283,0 -0.75762,-0.10101 -1.28796,-0.30304 -0.56401,-0.20204 -0.9344,-0.42091 -1.11118,-0.65661 -0.48824,-0.63135 -0.73236,-1.50682 -0.73236,-2.62642 0,-1.06067 0.21465,-1.99507 0.64397,-2.80321 0.46299,-0.88388 1.05226,-1.33425 1.76779,-1.35109 0.26096,-0.008 0.57663,0.0589 0.94703,0.20203 0.45457,0.17679 0.82917,0.4167 1.1238,0.71974 0.0758,0.0758 0.14732,0.30306 0.21466,0.68186 0.0842,0.40407 0.12627,0.79972 0.12627,1.18695 0,0.57243 -0.0926,0.96807 -0.27779,1.18694 -0.86706,0.27779 -1.75095,0.43353 -2.65168,0.4672 -0.0168,0.41248 0.0337,0.84601 0.15153,1.30058 0.11785,0.45458 0.23991,0.68607 0.36618,0.69449 0.16836,0.008 0.37039,-0.13048 0.6061,-0.41669 0.21045,-0.24412 0.34092,-0.45037 0.39144,-0.61873 0.0589,-0.25254 0.13889,-0.51349 0.23991,-0.78287 0.13468,-0.0168 0.39985,0.0505 0.7955,0.20203 0.39565,0.15153 0.62714,0.28621 0.69449,0.40406 m -2.24761,-3.86387 c -0.14311,-0.0168 -0.34514,0.21046 -0.6061,0.68186 -0.25254,0.47141 -0.39986,0.92178 -0.44195,1.35109 0.37881,-0.0168 0.68186,-0.10943 0.90915,-0.27779 0.13469,-0.10101 0.20203,-0.52191 0.20203,-1.26271 0,-0.31146 -0.0211,-0.47561 -0.0631,-0.49245"
         style=""
         id="path3668" />
    </g>
    <g
       transform="scale(1.0380022,0.9633891)"
       style="font-size:12.62703991px;font-style:normal;font-variant:normal;font-weight:bold;font-stretch:normal;text-align:start;line-height:125%;letter-spacing:0px;word-spacing:0px;writing-mode:lr-tb;text-anchor:start;fill:#800080;fill-opacity:1;stroke:none;font-family:Marker Felt;-inkscape-font-specification:Marker Felt Bold"
       id="text2993">
      <path
         d="m 380.25869,209.86473 c -0.0253,0.21045 -0.10523,0.37881 -0.23991,0.50508 -0.24413,0.52192 -0.61873,1.04805 -1.12381,1.57838 -0.54717,0.56401 -0.98912,0.84601 -1.32584,0.84601 -0.0505,0 -0.0968,-0.004 -0.13889,-0.0126 -0.3704,-0.11786 -0.78709,-0.26517 -1.25008,-0.44195 -0.82497,-0.33672 -1.45632,-0.9807 -1.89406,-1.93194 -0.38723,-0.85863 -0.58084,-1.85617 -0.58084,-2.99261 0,-1.38896 0.26517,-2.61379 0.7955,-3.67446 0.56401,-1.12801 1.27112,-1.71306 2.12134,-1.75516 0.3283,-0.0168 0.80813,0.15153 1.43949,0.50508 0.63976,0.35357 1.06066,0.70712 1.2627,1.06067 0.20203,0.34515 0.34093,1.10698 0.41669,2.28549 0.0168,0.25255 -0.0168,0.5093 -0.10101,0.77025 -0.10102,0.31148 -0.2315,0.45458 -0.39144,0.42932 -0.29464,-0.0421 -0.66503,-0.13468 -1.11118,-0.27779 -0.53876,-0.17677 -0.82918,-0.32409 -0.87127,-0.44195 -0.0168,-0.0421 -0.0252,-0.08 -0.0252,-0.11364 0,-0.0758 0.0337,-0.16836 0.10102,-0.2778 0.0757,-0.11784 0.11364,-0.21465 0.11364,-0.29042 0.0421,-0.34513 0.0631,-0.66922 0.0631,-0.97228 0,-0.43773 -0.0505,-0.74078 -0.15152,-0.90915 -0.50508,0.3704 -0.8881,0.98913 -1.14906,1.85618 -0.21887,0.73237 -0.32831,1.56155 -0.3283,2.48752 -1e-5,0.71554 0.0631,1.35531 0.1894,1.91931 0.12627,0.5556 0.27779,0.89232 0.45458,1.01017 0.0842,0.0505 0.31567,-0.11785 0.69448,-0.50508 0.38723,-0.39565 0.63556,-0.71132 0.745,-0.94703 0.008,-0.008 0.0463,-0.14311 0.11364,-0.40407 0.0505,-0.15152 0.11785,-0.24412 0.20203,-0.27779 0.14311,-0.0505 0.50929,0.0716 1.09856,0.36618 0.59767,0.28622 0.88809,0.48825 0.87126,0.6061"
         style=""
         id="path3635" />
      <path
         d="m 385.81676,205.73569 c 0.0337,0.13469 -0.0126,0.24413 -0.1389,0.3283 -0.10102,0.0505 -0.19783,0.10523 -0.29042,0.16415 -0.53034,0.80814 -1.25008,1.89827 -2.15922,3.27041 -1e-5,1.33846 0.004,2.02874 0.0126,2.07083 0.008,0.0421 0.0379,0.15153 0.0884,0.3283 0.0589,0.16836 0.0884,0.30305 0.0884,0.40407 0,0.15994 -0.0716,0.26938 -0.21466,0.3283 -0.0926,0.0421 -0.21887,0.0631 -0.37881,0.0631 -0.31988,0 -0.67344,-0.0716 -1.06067,-0.21466 -0.48825,-0.16836 -0.73237,-0.38302 -0.73237,-0.64398 0,-0.0758 0.0337,-0.19782 0.10102,-0.36619 0.0673,-0.16836 0.10101,-0.30725 0.10101,-0.41669 l 0,-5.00031 c -0.0926,-0.4714 -0.13889,-0.71552 -0.13889,-0.73236 0,-0.26096 0.11785,-0.42511 0.35355,-0.49246 0.10102,-0.0252 0.22308,-0.0379 0.36619,-0.0379 0.29463,1e-5 0.60189,0.0505 0.92177,0.15152 0.3283,0.0926 0.52192,0.19363 0.58085,0.30305 0.0168,0.0337 0.0252,0.0758 0.0252,0.12627 0,0.0421 -0.0589,0.24413 -0.17678,0.6061 l 0,0.6061 c 0.20203,-0.36197 0.39986,-0.72394 0.59347,-1.08593 0.26096,-0.45456 0.45457,-0.69448 0.58085,-0.71974 0.18519,-0.0337 0.46719,0.0758 0.84601,0.32831 0.3788,0.25254 0.58926,0.46299 0.63135,0.63135"
         style=""
         id="path3637" />
      <path
         d="m 391.2892,210.21829 c 0.0758,0.12627 -0.0884,0.50087 -0.49245,1.1238 -0.43775,0.66503 -0.86706,1.11539 -1.28796,1.3511 -0.0505,0.0252 -0.12628,0.0379 -0.22729,0.0379 -0.3283,0 -0.75762,-0.10102 -1.28796,-0.30305 -0.56401,-0.20203 -0.9344,-0.4209 -1.11118,-0.65661 -0.48824,-0.63135 -0.73236,-1.50682 -0.73236,-2.62642 0,-1.06067 0.21466,-1.99507 0.64397,-2.8032 0.46299,-0.88389 1.05226,-1.33425 1.76779,-1.3511 0.26096,-0.008 0.57663,0.0589 0.94703,0.20204 0.45457,0.17678 0.82917,0.41669 1.12381,0.71974 0.0757,0.0758 0.14731,0.30305 0.21465,0.68186 0.0842,0.40407 0.12627,0.79971 0.12628,1.18694 -10e-6,0.57243 -0.0926,0.96808 -0.2778,1.18694 -0.86706,0.2778 -1.75095,0.43353 -2.65168,0.4672 -0.0168,0.41249 0.0337,0.84601 0.15153,1.30059 0.11785,0.45457 0.23991,0.68607 0.36618,0.69448 0.16836,0.008 0.37039,-0.13048 0.6061,-0.41669 0.21045,-0.24412 0.34092,-0.45036 0.39144,-0.61872 0.0589,-0.25254 0.13889,-0.5135 0.23991,-0.78288 0.13468,-0.0168 0.39985,0.0505 0.7955,0.20203 0.39565,0.15153 0.62714,0.28622 0.69449,0.40407 m -2.24761,-3.86388 c -0.14311,-0.0168 -0.34514,0.21046 -0.6061,0.68186 -0.25254,0.47142 -0.39986,0.92178 -0.44195,1.3511 0.37881,-0.0168 0.68186,-0.10943 0.90915,-0.2778 0.13469,-0.10101 0.20203,-0.52191 0.20203,-1.2627 0,-0.31146 -0.0211,-0.47561 -0.0631,-0.49246"
         style=""
         id="path3639" />
      <path
         d="m 398.22381,212.15022 c -0.008,0.11786 -0.0589,0.21887 -0.15152,0.30305 -0.0926,0.0842 -0.19783,0.11786 -0.31568,0.10102 -1.04384,-0.14311 -1.62468,-0.34093 -1.74253,-0.59347 -0.0168,-0.0337 -0.0253,-0.0673 -0.0252,-0.10102 -1e-5,-0.0421 0.0168,-0.0884 0.0505,-0.13889 0.0421,-0.0505 0.0673,-0.0926 0.0758,-0.12628 0.008,-0.0421 0.0253,-0.08 0.0505,-0.11364 0.0168,-0.0673 0.021,-0.21466 0.0126,-0.44194 -0.10102,0.0758 -0.25254,0.27779 -0.45457,0.60609 -0.21045,0.36198 -0.39565,0.61452 -0.55559,0.75763 -0.26938,0.25254 -0.57664,0.37881 -0.92177,0.37881 -0.20204,0 -0.39986,-0.08 -0.59347,-0.23992 -0.0926,-0.0758 -0.25676,-0.23991 -0.49246,-0.49245 -0.40407,-0.45457 -0.62293,-0.70291 -0.65661,-0.745 -0.17677,-0.2357 -0.26516,-0.45878 -0.26516,-0.66923 0,-0.0673 0.008,-0.13469 0.0252,-0.20203 0.15994,-0.74079 0.65661,-1.44369 1.48999,-2.10872 0.6061,-0.47982 1.46474,-0.98911 2.57592,-1.52787 -1e-5,-0.26937 -0.0674,-0.44194 -0.20203,-0.51771 -0.0842,-0.0505 -0.37882,0.0463 -0.8839,0.29042 -0.50508,0.23571 -0.85864,0.43775 -1.06067,0.6061 -0.0673,0.0674 -0.17678,0.15995 -0.3283,0.2778 -0.14311,0.0842 -0.27359,0.10943 -0.39144,0.0758 -0.0926,-0.0252 -0.29042,-0.17678 -0.59347,-0.45458 -0.30305,-0.27778 -0.4672,-0.46298 -0.49246,-0.55559 -0.0673,-0.22728 0.004,-0.40405 0.21466,-0.53033 0.008,-0.008 0.17678,-0.0589 0.50509,-0.15153 0.31146,-0.16835 0.62293,-0.33671 0.9344,-0.50508 0.6566,-0.31146 1.21219,-0.47982 1.66677,-0.50508 0.19361,-0.008 0.41248,0.0926 0.6566,0.30305 0.21887,0.19362 0.43773,0.38724 0.65661,0.58084 0.22728,0.18521 0.45878,0.36619 0.69449,0.54297 0.26937,0.23571 0.40405,0.46299 0.40406,0.68186 l 0,4.77302 c 0.0842,0.21887 0.12206,0.36618 0.11364,0.44194 m -2.02032,-3.68709 c -0.41249,0.15995 -0.76605,0.40407 -1.06067,0.73237 -0.21888,0.26938 -0.43774,0.53454 -0.65661,0.7955 -0.17678,0.17678 -0.34514,0.40828 -0.50508,0.69449 -0.15153,0.27779 -0.22729,0.48404 -0.22729,0.61872 0,0.0673 0.0252,0.10102 0.0758,0.10102 0.17678,0 0.57243,-0.37881 1.18695,-1.13643 0.61451,-0.76604 1.01015,-1.36793 1.18694,-1.80567"
         style=""
         id="path3641" />
      <path
         d="m 403.37269,206.24077 c -0.008,0.15153 -0.0589,0.28622 -0.15153,0.40407 -0.0926,0.11785 -0.19362,0.17678 -0.30305,0.17677 -0.0337,1e-5 -0.0631,-0.004 -0.0884,-0.0126 -0.11785,-0.0421 -0.38302,-0.0631 -0.7955,-0.0631 l 0,4.98768 c 0,-0.008 0.0252,0.0589 0.0758,0.20203 0.0589,0.14311 0.0884,0.26938 0.0884,0.37882 0,0.24412 -0.16836,0.3746 -0.50508,0.39143 -0.17678,0.008 -0.50088,-0.0673 -0.97228,-0.22728 -0.5135,-0.16836 -0.78709,-0.3241 -0.82076,-0.4672 -0.0168,-0.0589 0.0126,-0.18099 0.0884,-0.36619 0.0758,-0.19361 0.11364,-0.34093 0.11364,-0.44194 l 0,-4.46998 -0.42932,0 c -0.15994,1e-5 -0.35776,-0.13889 -0.59347,-0.41669 -0.2357,-0.2862 -0.35355,-0.51349 -0.35355,-0.68186 0,-0.12626 0.0463,-0.2399 0.13889,-0.34093 0.10102,-0.10101 0.21045,-0.15152 0.32831,-0.15152 l 0.90914,0 0,-1.13644 c -0.12627,-0.16835 -0.1894,-0.34934 -0.1894,-0.54296 0,-0.17677 0.0758,-0.2862 0.22728,-0.3283 0.0758,-0.0168 0.18099,-0.0252 0.31568,-0.0253 0.31146,1e-5 0.67344,0.0505 1.08593,0.15153 0.42089,0.0926 0.69448,0.18941 0.82075,0.29042 0.0589,0.0505 0.0884,0.10944 0.0884,0.17678 0,0.0842 -0.0674,0.21046 -0.20203,0.37881 -0.13469,0.16837 -0.20625,0.28622 -0.21466,0.35356 l 0,0.68186 0.40407,0 c 0.0842,0 0.26095,0.15153 0.53033,0.45457 0.26937,0.30306 0.40406,0.51772 0.40407,0.64398"
         style=""
         id="path3643" />
      <path
         d="m 408.99665,210.21829 c 0.0758,0.12627 -0.0884,0.50087 -0.49245,1.1238 -0.43775,0.66503 -0.86706,1.11539 -1.28796,1.3511 -0.0505,0.0252 -0.12628,0.0379 -0.22729,0.0379 -0.3283,0 -0.75762,-0.10102 -1.28796,-0.30305 -0.56401,-0.20203 -0.9344,-0.4209 -1.11118,-0.65661 -0.48824,-0.63135 -0.73236,-1.50682 -0.73236,-2.62642 0,-1.06067 0.21465,-1.99507 0.64397,-2.8032 0.46299,-0.88389 1.05226,-1.33425 1.76779,-1.3511 0.26096,-0.008 0.57663,0.0589 0.94703,0.20204 0.45457,0.17678 0.82917,0.41669 1.1238,0.71974 0.0758,0.0758 0.14732,0.30305 0.21466,0.68186 0.0842,0.40407 0.12627,0.79971 0.12628,1.18694 -10e-6,0.57243 -0.0926,0.96808 -0.2778,1.18694 -0.86706,0.2778 -1.75095,0.43353 -2.65168,0.4672 -0.0168,0.41249 0.0337,0.84601 0.15153,1.30059 0.11785,0.45457 0.23991,0.68607 0.36618,0.69448 0.16836,0.008 0.37039,-0.13048 0.6061,-0.41669 0.21045,-0.24412 0.34092,-0.45036 0.39144,-0.61872 0.0589,-0.25254 0.13889,-0.5135 0.23991,-0.78288 0.13468,-0.0168 0.39985,0.0505 0.7955,0.20203 0.39565,0.15153 0.62714,0.28622 0.69449,0.40407 m -2.24761,-3.86388 c -0.14311,-0.0168 -0.34514,0.21046 -0.6061,0.68186 -0.25254,0.47142 -0.39986,0.92178 -0.44195,1.3511 0.37881,-0.0168 0.68186,-0.10943 0.90915,-0.2778 0.13469,-0.10101 0.20203,-0.52191 0.20203,-1.2627 0,-0.31146 -0.0211,-0.47561 -0.0631,-0.49246"
         style=""
         id="path3645" />
    </g>
    <g
       transform="scale(1.0380022,0.9633891)"
       style="font-size:12.62703991px;font-style:normal;font-variant:normal;font-weight:bold;font-stretch:normal;text-align:start;line-height:125%;letter-spacing:0px;word-spacing:0px;writing-mode:lr-tb;text-anchor:start;fill:#800080;fill-opacity:1;stroke:none;font-family:Marker Felt;-inkscape-font-specification:Marker Felt Bold"
       id="text2997">
      <path
         d="m 294.8097,173.82356 c -1e-5,0.91757 -0.24834,1.9151 -0.745,2.9926 -0.39565,0.86706 -0.89231,1.68361 -1.48999,2.44965 -0.53034,0.65661 -0.92177,1.03963 -1.17431,1.14906 -0.12628,0.0505 -0.26938,0.0758 -0.42932,0.0758 -0.3704,0 -0.7913,-0.11785 -1.26271,-0.35355 -0.4209,-0.19362 -0.73657,-0.40407 -0.94702,-0.63136 l 0,-9.09147 c 0.0253,-0.21885 0.15152,-0.34933 0.37881,-0.39143 0.0253,-0.008 0.2357,0.0211 0.63135,0.0884 0.0758,0.008 0.32409,-0.08 0.745,-0.26517 0.42931,-0.18519 0.7955,-0.27779 1.09855,-0.2778 0.37039,1e-5 0.72394,0.0968 1.06067,0.29042 0.19361,0.11787 0.48403,0.34515 0.87126,0.68186 0.56401,0.48826 0.93019,1.00176 1.09856,1.5405 0.10942,0.36199 0.16414,0.94283 0.16415,1.74254 m -2.09609,-2.43702 c -0.0421,-0.0252 -0.10944,-0.0379 -0.20203,-0.0379 -0.44616,0 -0.98071,0.19362 -1.60364,0.58084 l 0,5.68217 c 0.57243,-0.3283 1.06067,-1.13222 1.46474,-2.41177 0.34513,-1.10275 0.5177,-2.1045 0.51771,-3.00523 -1e-5,-0.4714 -0.0589,-0.74078 -0.17678,-0.80813"
         style=""
         id="path3620" />
      <path
         d="m 298.24642,171.07086 c 0.008,0.0168 0.0126,0.0505 0.0126,0.10102 0,0.1852 -0.0379,0.42512 -0.11364,0.71974 -0.0842,0.31989 -0.16416,0.49667 -0.23992,0.53033 -0.0842,0.0337 -0.44615,-0.0547 -1.08592,-0.26516 -0.63977,-0.21886 -0.9807,-0.3746 -1.02279,-0.4672 -0.0253,-0.0421 -0.0379,-0.10522 -0.0379,-0.18941 0,-0.22728 0.0589,-0.46719 0.17678,-0.71974 0.13468,-0.2862 0.28621,-0.44615 0.45457,-0.47983 0.19361,-0.0337 0.53033,0.0421 1.01016,0.22729 0.47983,0.17679 0.76183,0.35777 0.84601,0.54296 m -0.0379,8.72529 c 0.0337,0.30304 -0.0716,0.49245 -0.31567,0.56821 -0.0421,0.008 -0.10102,0.0126 -0.17678,0.0126 -0.30305,0 -0.67765,-0.0631 -1.12381,-0.18941 -0.47983,-0.13469 -0.76183,-0.27779 -0.84601,-0.42932 -0.0421,-0.0673 -0.004,-0.19782 0.11364,-0.39143 0.0758,-0.12627 0.11365,-0.35777 0.11365,-0.69449 l 0,-5.30336 c -0.10102,-0.31988 -0.15153,-0.53454 -0.15153,-0.64398 0,-0.10942 0.15574,-0.16414 0.4672,-0.16415 0.25254,1e-5 0.60189,0.08 1.04805,0.23992 0.45457,0.15153 0.72815,0.28621 0.82075,0.40406 0.0253,0.0337 0.0379,0.0758 0.0379,0.12627 -10e-6,0.0674 -0.0505,0.19362 -0.15153,0.37881 -0.0926,0.1852 -0.1389,0.3241 -0.1389,0.41669 l 0,5.07607 c 0,0.0842 0.0463,0.18941 0.1389,0.31568 0.10101,0.12627 0.15573,0.21887 0.16415,0.2778"
         style=""
         id="path3622" />
      <path
         d="m 303.71038,178.79861 c 0,0.46299 -0.15574,0.83338 -0.4672,1.11118 -0.30305,0.27779 -0.73237,0.4209 -1.28796,0.42932 -0.13469,0 -0.282,-0.0211 -0.44194,-0.0631 -0.28622,-0.0758 -0.43774,-0.11785 -0.45458,-0.12627 -0.15152,-0.0337 -0.30726,-0.0716 -0.4672,-0.11364 -0.15152,-0.0337 -0.282,-0.0968 -0.39144,-0.18941 -0.18519,-0.16836 -0.36618,-0.39985 -0.54296,-0.69448 -0.14311,-0.23571 -0.282,-0.47562 -0.41669,-0.71975 -0.13469,-0.24412 -0.20203,-0.39143 -0.20203,-0.44194 0,-0.11785 0.0842,-0.20624 0.25254,-0.26517 0.0421,-0.0168 0.11785,-0.0252 0.22728,-0.0252 0.25254,0 0.56822,0.0295 0.94703,0.0884 0.38723,0.0505 0.59768,0.0968 0.63135,0.13889 0.0337,0.0337 0.08,0.27359 0.1389,0.71974 0.0505,0.38723 0.1389,0.58085 0.26517,0.58085 0.19361,0 0.29042,-0.26096 0.29042,-0.78288 0,-0.66502 -0.17678,-1.08171 -0.53034,-1.25008 -0.80813,-0.3788 -1.33846,-0.71552 -1.591,-1.01016 -0.31147,-0.36197 -0.4672,-0.90914 -0.4672,-1.64151 0,-0.47983 0.12627,-0.93019 0.37881,-1.3511 0.25254,-0.42931 0.55138,-0.68606 0.89652,-0.77025 0.15152,-0.0337 0.63977,0.12628 1.46473,0.47983 0.0758,0.0253 0.29884,0.0716 0.66924,0.1389 0.26095,0.0505 0.44615,0.1389 0.55559,0.26517 0.15994,0.19362 0.25253,0.50088 0.27779,0.92177 0.008,0.31147 0.0126,0.62294 0.0126,0.9344 0.0589,0.28622 0.0884,0.45458 0.0884,0.50508 -10e-6,0.23571 -0.11365,0.3704 -0.34093,0.40407 -0.11786,0.0168 -0.34935,-0.0295 -0.69449,-0.1389 -0.37881,-0.12627 -0.61873,-0.25674 -0.71974,-0.39144 -0.0253,-0.0337 -0.0505,-0.34934 -0.0758,-0.94703 -0.0253,-0.564 -0.0842,-0.846 -0.17678,-0.84601 -0.12627,1e-5 -0.24413,0.16416 -0.35356,0.49246 -0.10943,0.32831 -0.16415,0.66924 -0.16415,1.02279 0,0.44616 0.0968,0.72816 0.29042,0.84601 0.41248,0.22729 0.82076,0.45879 1.22483,0.69449 0.41247,0.22729 0.69869,0.46299 0.85863,0.70711 0.21045,0.31989 0.31568,0.74921 0.31568,1.28796"
         style=""
         id="path3624" />
      <path
         d="m 310.10124,177.58641 c 0,0.15995 -0.1389,0.37461 -0.41669,0.64398 -0.22729,0.49667 -0.42932,0.85443 -0.6061,1.0733 -0.38723,0.50508 -0.86285,0.80392 -1.42685,0.89652 -0.11786,0.0168 -0.2315,0.0252 -0.34093,0.0252 -0.47142,0 -1.05226,-0.22728 -1.74254,-0.68186 -0.59768,-0.40406 -0.89652,-1.33425 -0.89652,-2.79057 0,-1.0775 0.16416,-2.05399 0.49246,-2.92947 0.36197,-0.95123 0.80392,-1.44369 1.32584,-1.47737 0.41248,-0.0252 0.91756,0.0842 1.51524,0.3283 0.59768,0.24413 1.00174,0.51351 1.2122,0.80814 0.17677,0.24412 0.26516,0.56822 0.26517,0.97228 -1e-5,0.10944 -0.008,0.26938 -0.0253,0.47982 -0.0168,0.20204 -0.0211,0.34515 -0.0126,0.42932 0.0168,0.2273 0.0252,0.33252 0.0253,0.31568 -1e-5,0.26938 -0.13048,0.39986 -0.39144,0.39144 -0.30305,-0.008 -0.58926,-0.0547 -0.85864,-0.1389 -0.36198,-0.12627 -0.58084,-0.29883 -0.6566,-0.51771 -0.0253,-0.0758 0.008,-0.17677 0.10101,-0.30305 0.10102,-0.12626 0.14311,-0.23149 0.12627,-0.31567 0.0168,-0.0589 0.0253,-0.20624 0.0253,-0.44195 -10e-6,-0.50507 -0.0884,-0.76603 -0.26517,-0.78288 -0.26938,-0.0168 -0.49667,0.39145 -0.68186,1.22483 -0.16836,0.74079 -0.25254,1.54892 -0.25254,2.42439 0,1.03542 0.12206,1.58259 0.36618,1.64151 0.19361,0.0421 0.44616,-0.16836 0.75763,-0.63135 0.26095,-0.39564 0.39985,-0.66081 0.41669,-0.7955 0.0253,-0.14311 0.0463,-0.28621 0.0631,-0.42932 0.0589,-0.2357 0.21045,-0.34514 0.45458,-0.3283 0.15152,0.0168 0.41668,0.11364 0.7955,0.29042 0.37881,0.17678 0.57663,0.31147 0.59347,0.40406 0.0253,0.0842 0.0379,0.15574 0.0379,0.21466"
         style=""
         id="path3626" />
      <path
         d="m 316.83264,172.83865 c 0.0589,0.0842 0.0884,0.16836 0.0884,0.25254 -10e-6,0.0842 -0.0505,0.1852 -0.15153,0.30305 -0.0926,0.11785 -0.1389,0.19362 -0.1389,0.22728 l 0,5.87158 c 0,0.0505 0.0252,0.13889 0.0758,0.26516 0.0589,0.12627 0.0884,0.21887 0.0884,0.2778 -10e-6,0.15152 -0.13049,0.26096 -0.39144,0.3283 -0.1347,0.0337 -0.45037,-0.0126 -0.94703,-0.1389 -0.53876,-0.13468 -0.83339,-0.26937 -0.88389,-0.40406 -0.0421,-0.10943 -0.0295,-0.25675 0.0379,-0.44195 0.0842,-0.21887 0.12626,-0.37039 0.12627,-0.45457 -1e-5,-0.0842 -0.0126,-0.19361 -0.0379,-0.3283 -0.12628,0.4209 -0.30306,0.7955 -0.53034,1.1238 -0.2778,0.38723 -0.55559,0.58085 -0.83338,0.58085 -0.28622,0 -0.65661,-0.0968 -1.11118,-0.29043 -0.45458,-0.19361 -0.71554,-0.37039 -0.78288,-0.53033 -0.2357,-0.53875 -0.35356,-2.52961 -0.35356,-5.97259 -0.0673,-0.15994 -0.10101,-0.31988 -0.10101,-0.47983 0,-0.26095 0.0968,-0.43773 0.29042,-0.53033 0.0589,-0.0252 0.16415,-0.0379 0.31568,-0.0379 0.28621,1e-5 0.62714,0.0463 1.02279,0.1389 0.39564,0.0842 0.63555,0.17258 0.71974,0.26517 0.0421,0.0505 0.0631,0.10523 0.0631,0.16415 0,0.0926 -0.0631,0.24413 -0.1894,0.45458 -0.12628,0.20203 -0.18941,0.34935 -0.18941,0.44194 -0.0168,3.31671 0.008,4.98768 0.0758,5.01294 0.11785,0.0421 0.41248,-0.34514 0.8839,-1.16169 0.47982,-0.82496 0.71973,-1.45211 0.71974,-1.88143 l 0,-2.36126 c -0.10944,-0.10942 -0.16416,-0.24411 -0.16415,-0.40406 -10e-6,-0.3283 0.1431,-0.55138 0.42931,-0.66924 0.0337,-0.0168 0.0842,-0.0252 0.15153,-0.0252 0.22728,10e-6 0.55979,0.0547 0.99754,0.16415 0.43773,0.10103 0.67764,0.181 0.71974,0.23992"
         style=""
         id="path3628" />
      <path
         d="m 322.42898,178.79861 c -1e-5,0.46299 -0.15574,0.83338 -0.4672,1.11118 -0.30305,0.27779 -0.73237,0.4209 -1.28796,0.42932 -0.13469,0 -0.28201,-0.0211 -0.44195,-0.0631 -0.28621,-0.0758 -0.43773,-0.11785 -0.45457,-0.12627 -0.15153,-0.0337 -0.30726,-0.0716 -0.4672,-0.11364 -0.15153,-0.0337 -0.282,-0.0968 -0.39144,-0.18941 -0.1852,-0.16836 -0.36618,-0.39985 -0.54296,-0.69448 -0.14311,-0.23571 -0.282,-0.47562 -0.41669,-0.71975 -0.13469,-0.24412 -0.20204,-0.39143 -0.20204,-0.44194 0,-0.11785 0.0842,-0.20624 0.25255,-0.26517 0.0421,-0.0168 0.11785,-0.0252 0.22728,-0.0252 0.25254,0 0.56822,0.0295 0.94703,0.0884 0.38723,0.0505 0.59768,0.0968 0.63135,0.13889 0.0337,0.0337 0.08,0.27359 0.1389,0.71974 0.0505,0.38723 0.13889,0.58085 0.26517,0.58085 0.19361,0 0.29042,-0.26096 0.29042,-0.78288 0,-0.66502 -0.17678,-1.08171 -0.53034,-1.25008 -0.80813,-0.3788 -1.33846,-0.71552 -1.591,-1.01016 -0.31147,-0.36197 -0.4672,-0.90914 -0.4672,-1.64151 0,-0.47983 0.12627,-0.93019 0.37881,-1.3511 0.25254,-0.42931 0.55138,-0.68606 0.89652,-0.77025 0.15152,-0.0337 0.63977,0.12628 1.46473,0.47983 0.0758,0.0253 0.29884,0.0716 0.66924,0.1389 0.26095,0.0505 0.44615,0.1389 0.55559,0.26517 0.15994,0.19362 0.25253,0.50088 0.27779,0.92177 0.008,0.31147 0.0126,0.62294 0.0126,0.9344 0.0589,0.28622 0.0884,0.45458 0.0884,0.50508 -1e-5,0.23571 -0.11365,0.3704 -0.34093,0.40407 -0.11786,0.0168 -0.34935,-0.0295 -0.69449,-0.1389 -0.37881,-0.12627 -0.61873,-0.25674 -0.71974,-0.39144 -0.0253,-0.0337 -0.0505,-0.34934 -0.0758,-0.94703 -0.0253,-0.564 -0.0842,-0.846 -0.17678,-0.84601 -0.12627,1e-5 -0.24413,0.16416 -0.35356,0.49246 -0.10943,0.32831 -0.16415,0.66924 -0.16415,1.02279 0,0.44616 0.0968,0.72816 0.29042,0.84601 0.41248,0.22729 0.82076,0.45879 1.22483,0.69449 0.41247,0.22729 0.69869,0.46299 0.85863,0.70711 0.21045,0.31989 0.31567,0.74921 0.31568,1.28796"
         style=""
         id="path3630" />
      <path
         d="m 328.07662,178.79861 c 0,0.46299 -0.15574,0.83338 -0.4672,1.11118 -0.30305,0.27779 -0.73237,0.4209 -1.28796,0.42932 -0.13469,0 -0.282,-0.0211 -0.44194,-0.0631 -0.28622,-0.0758 -0.43774,-0.11785 -0.45458,-0.12627 -0.15152,-0.0337 -0.30726,-0.0716 -0.4672,-0.11364 -0.15152,-0.0337 -0.282,-0.0968 -0.39144,-0.18941 -0.18519,-0.16836 -0.36618,-0.39985 -0.54296,-0.69448 -0.14311,-0.23571 -0.282,-0.47562 -0.41669,-0.71975 -0.13469,-0.24412 -0.20203,-0.39143 -0.20203,-0.44194 0,-0.11785 0.0842,-0.20624 0.25254,-0.26517 0.0421,-0.0168 0.11785,-0.0252 0.22728,-0.0252 0.25254,0 0.56822,0.0295 0.94703,0.0884 0.38723,0.0505 0.59768,0.0968 0.63135,0.13889 0.0337,0.0337 0.08,0.27359 0.1389,0.71974 0.0505,0.38723 0.1389,0.58085 0.26517,0.58085 0.19361,0 0.29042,-0.26096 0.29042,-0.78288 0,-0.66502 -0.17678,-1.08171 -0.53033,-1.25008 -0.80814,-0.3788 -1.33847,-0.71552 -1.59101,-1.01016 -0.31147,-0.36197 -0.4672,-0.90914 -0.4672,-1.64151 0,-0.47983 0.12627,-0.93019 0.37881,-1.3511 0.25254,-0.42931 0.55138,-0.68606 0.89652,-0.77025 0.15152,-0.0337 0.63977,0.12628 1.46474,0.47983 0.0758,0.0253 0.29883,0.0716 0.66923,0.1389 0.26095,0.0505 0.44615,0.1389 0.55559,0.26517 0.15994,0.19362 0.25254,0.50088 0.27779,0.92177 0.008,0.31147 0.0126,0.62294 0.0126,0.9344 0.0589,0.28622 0.0884,0.45458 0.0884,0.50508 0,0.23571 -0.11365,0.3704 -0.34093,0.40407 -0.11786,0.0168 -0.34935,-0.0295 -0.69449,-0.1389 -0.37881,-0.12627 -0.61872,-0.25674 -0.71974,-0.39144 -0.0253,-0.0337 -0.0505,-0.34934 -0.0758,-0.94703 -0.0253,-0.564 -0.0842,-0.846 -0.17678,-0.84601 -0.12627,1e-5 -0.24412,0.16416 -0.35356,0.49246 -0.10943,0.32831 -0.16415,0.66924 -0.16415,1.02279 0,0.44616 0.0968,0.72816 0.29042,0.84601 0.41248,0.22729 0.82076,0.45879 1.22483,0.69449 0.41248,0.22729 0.69869,0.46299 0.85864,0.70711 0.21044,0.31989 0.31567,0.74921 0.31567,1.28796"
         style=""
         id="path3632" />
    </g>
    <g
       transform="scale(1.0380022,0.9633891)"
       style="font-size:12.62703991px;font-style:normal;font-variant:normal;font-weight:bold;font-stretch:normal;text-align:start;line-height:125%;letter-spacing:0px;word-spacing:0px;writing-mode:lr-tb;text-anchor:start;fill:#800080;fill-opacity:1;stroke:none;font-family:Marker Felt;-inkscape-font-specification:Marker Felt Bold"
       id="text3001">
      <path
         d="m 293.41355,113.15794 c 0.0758,0.1431 -0.0758,0.49666 -0.45458,1.06067 -0.3704,0.55559 -0.68186,0.82917 -0.9344,0.82075 -0.26938,-0.008 -0.48404,-0.15152 -0.64398,-0.42932 -0.0253,-0.0842 -0.0884,-0.20624 -0.1894,-0.36618 l -2.66431,-2.48753 0,2.33601 c 0,0.0926 0.0337,0.21045 0.10102,0.35355 0.0758,0.14311 0.11364,0.24834 0.11364,0.31568 0,0.25254 -0.16415,0.39144 -0.49245,0.41669 -0.25255,0.0253 -0.62715,-0.021 -1.12381,-0.1389 -0.53875,-0.11785 -0.80813,-0.24412 -0.80813,-0.37881 0,-0.0421 0.008,-0.0968 0.0252,-0.16415 0.0253,-0.0758 0.0379,-0.16836 0.0379,-0.27779 l 0,-8.81368 c 0,-0.0589 -0.0126,-0.10942 -0.0379,-0.15152 -0.0252,-0.0505 -0.0379,-0.0884 -0.0379,-0.11365 0.008,-0.22727 0.17678,-0.36196 0.50508,-0.40406 0.10102,-0.0168 0.32831,0.0253 0.68186,0.12627 0.36198,0.0926 0.61873,0.1347 0.77025,0.12627 0.14311,-0.008 0.43353,-0.12205 0.87127,-0.34093 0.44615,-0.22728 0.83338,-0.34092 1.16169,-0.34093 0.12626,10e-6 0.25674,0.0126 0.39144,0.0379 0.2357,0.0505 0.45035,0.15995 0.64397,0.3283 0.19361,0.16837 0.37881,0.33674 0.55559,0.50509 0.46299,0.43774 0.7029,0.66924 0.71975,0.69448 0.21886,0.25255 0.33671,0.53456 0.35355,0.84601 0.0505,0.9765 -0.78288,2.23079 -2.50015,3.76286 0.35355,0.31989 1.13222,1.09856 2.336,2.33601 0.0758,0.0252 0.18519,0.0758 0.3283,0.15152 0.0842,0.0421 0.18098,0.10523 0.29043,0.18941 m -2.79058,-7.05852 c -0.39565,1e-5 -1.09435,0.41249 -2.09609,1.23745 l 0,1.93194 c 0.36197,-0.1431 0.83759,-0.57663 1.42686,-1.30059 0.58925,-0.72394 0.88389,-1.26269 0.88389,-1.61626 0,-0.16835 -0.0716,-0.25253 -0.21466,-0.25254"
         style=""
         id="path3605" />
      <path
         d="m 299.24783,112.53921 c 0.0758,0.12627 -0.0884,0.50087 -0.49245,1.12381 -0.43775,0.66502 -0.86707,1.11539 -1.28796,1.35109 -0.0505,0.0252 -0.12628,0.0379 -0.22729,0.0379 -0.32831,0 -0.75762,-0.10102 -1.28796,-0.30305 -0.56401,-0.20203 -0.9344,-0.4209 -1.11118,-0.6566 -0.48824,-0.63135 -0.73237,-1.50683 -0.73237,-2.62643 0,-1.06067 0.21466,-1.99507 0.64398,-2.8032 0.46299,-0.88389 1.05226,-1.33425 1.76779,-1.35109 0.26096,-0.008 0.57663,0.0589 0.94703,0.20203 0.45457,0.17678 0.82917,0.4167 1.1238,0.71974 0.0758,0.0758 0.14731,0.30305 0.21466,0.68186 0.0842,0.40407 0.12627,0.79972 0.12627,1.18694 0,0.57243 -0.0926,0.96808 -0.27779,1.18694 -0.86706,0.2778 -1.75095,0.43353 -2.65168,0.4672 -0.0168,0.41249 0.0337,0.84602 0.15153,1.30059 0.11785,0.45457 0.23991,0.68607 0.36618,0.69449 0.16836,0.008 0.37039,-0.13048 0.6061,-0.4167 0.21044,-0.24412 0.34092,-0.45036 0.39144,-0.61872 0.0589,-0.25254 0.13889,-0.5135 0.23991,-0.78288 0.13468,-0.0168 0.39985,0.0505 0.7955,0.20203 0.39565,0.15153 0.62714,0.28622 0.69449,0.40407 m -2.24761,-3.86387 c -0.14311,-0.0168 -0.34514,0.21045 -0.6061,0.68186 -0.25254,0.47141 -0.39986,0.92177 -0.44195,1.35109 0.37881,-0.0168 0.68186,-0.10943 0.90915,-0.2778 0.13468,-0.10101 0.20203,-0.52191 0.20203,-1.2627 0,-0.31146 -0.0211,-0.47561 -0.0631,-0.49245"
         style=""
         id="path3607" />
      <path
         d="m 304.23827,105.26604 c 0.0168,0.12627 -0.0211,0.26938 -0.11364,0.42931 -0.0926,0.15996 -0.18941,0.23572 -0.29042,0.22729 -0.0589,1e-5 -0.1389,-0.0421 -0.23992,-0.12627 -0.10102,-0.0926 -0.1894,-0.1431 -0.26516,-0.15152 -0.38724,-0.0673 -0.58085,0.29043 -0.58085,1.07329 0,0.0926 0,0.22309 0,0.39144 0.008,0.16837 0.0126,0.28622 0.0126,0.35356 l 0.40407,0 c 0.0926,1e-5 0.27358,0.15153 0.54296,0.45457 0.26937,0.30306 0.39985,0.51772 0.39144,0.64398 -0.008,0.15153 -0.0589,0.28622 -0.15153,0.40407 -0.0926,0.11786 -0.19362,0.17678 -0.30305,0.17678 -0.0337,0 -0.0631,-0.004 -0.0884,-0.0126 -0.10943,-0.0421 -0.3746,-0.0631 -0.7955,-0.0631 l 0,4.98769 c 0,0.0673 0.0337,0.15573 0.10102,0.26516 0.0758,0.10102 0.10522,0.18941 0.0884,0.26517 -0.0505,0.2778 -0.22729,0.42511 -0.53034,0.44195 -0.16836,0.008 -0.49246,-0.0674 -0.97228,-0.22729 -0.5135,-0.16836 -0.78709,-0.32409 -0.82076,-0.4672 -0.0168,-0.0589 0.0126,-0.18099 0.0884,-0.36618 0.0758,-0.19362 0.11364,-0.34093 0.11364,-0.44195 l 0,-4.46997 -0.42932,0 c -0.15994,0 -0.35776,-0.13889 -0.59347,-0.4167 -0.22728,-0.2862 -0.34093,-0.51349 -0.34093,-0.68186 0,-0.12626 0.0463,-0.2399 0.1389,-0.34093 0.0926,-0.101 0.19782,-0.15151 0.31568,-0.15152 l 0.90914,0 c 0,-0.92597 0.0547,-1.56995 0.16415,-1.93194 0.25254,-0.79128 0.79551,-1.18693 1.62889,-1.18694 0.10943,10e-6 0.21887,0.004 0.32831,0.0126 0.26937,0.0337 0.55558,0.17258 0.85863,0.41669 0.26938,0.21046 0.41248,0.37461 0.42932,0.49246"
         style=""
         id="path3609" />
      <path
         d="m 307.53117,104.92511 c 0,0.0589 -0.0211,0.1389 -0.0631,0.23991 -0.0337,0.10102 -0.0547,0.16416 -0.0631,0.1894 -0.0505,0.16837 -0.10102,0.42933 -0.15153,0.78288 l 0,7.753 c 0,0.10102 0.0253,0.19362 0.0758,0.2778 0.0505,0.0758 0.0758,0.1389 0.0758,0.1894 0,0.53876 -0.10102,0.82918 -0.30305,0.87127 -0.0758,0.0168 -0.34514,-0.0421 -0.80813,-0.17678 -0.45458,-0.12627 -0.72816,-0.22729 -0.82076,-0.30305 -0.1852,-0.15994 -0.27779,-0.30726 -0.27779,-0.44194 0,-0.0337 0.0168,-0.0716 0.0505,-0.11365 0.0337,-0.0421 0.0505,-0.11364 0.0505,-0.21466 l 0,-8.90206 c 0,-0.0505 -0.0168,-0.10101 -0.0505,-0.15152 -0.0253,-0.0589 -0.0379,-0.11364 -0.0379,-0.16416 0.0168,-0.20202 0.17257,-0.33671 0.4672,-0.40406 0.0842,-0.0168 0.26096,-0.0168 0.53034,0 0.31146,0.0253 0.58084,0.0716 0.80813,0.1389 0.34514,0.10102 0.51771,0.24413 0.51771,0.42932"
         style=""
         id="path3611" />
      <path
         d="m 313.52724,112.53921 c 0.0757,0.12627 -0.0884,0.50087 -0.49246,1.12381 -0.43774,0.66502 -0.86706,1.11539 -1.28796,1.35109 -0.0505,0.0252 -0.12627,0.0379 -0.22728,0.0379 -0.32831,0 -0.75763,-0.10102 -1.28796,-0.30305 -0.56401,-0.20203 -0.9344,-0.4209 -1.11118,-0.6566 -0.48825,-0.63135 -0.73237,-1.50683 -0.73237,-2.62643 0,-1.06067 0.21466,-1.99507 0.64398,-2.8032 0.46299,-0.88389 1.05225,-1.33425 1.76779,-1.35109 0.26095,-0.008 0.57663,0.0589 0.94702,0.20203 0.45457,0.17678 0.82918,0.4167 1.12381,0.71974 0.0758,0.0758 0.14731,0.30305 0.21466,0.68186 0.0842,0.40407 0.12627,0.79972 0.12627,1.18694 0,0.57243 -0.0926,0.96808 -0.27779,1.18694 -0.86706,0.2778 -1.75096,0.43353 -2.65168,0.4672 -0.0168,0.41249 0.0337,0.84602 0.15152,1.30059 0.11785,0.45457 0.23991,0.68607 0.36619,0.69449 0.16835,0.008 0.37039,-0.13048 0.60609,-0.4167 0.21045,-0.24412 0.34093,-0.45036 0.39144,-0.61872 0.0589,-0.25254 0.1389,-0.5135 0.23992,-0.78288 0.13468,-0.0168 0.39985,0.0505 0.7955,0.20203 0.39564,0.15153 0.62714,0.28622 0.69449,0.40407 m -2.24762,-3.86387 c -0.14311,-0.0168 -0.34514,0.21045 -0.60609,0.68186 -0.25255,0.47141 -0.39986,0.92177 -0.44195,1.35109 0.37881,-0.0168 0.68186,-0.10943 0.90915,-0.2778 0.13468,-0.10101 0.20203,-0.52191 0.20203,-1.2627 0,-0.31146 -0.0211,-0.47561 -0.0631,-0.49245"
         style=""
         id="path3613" />
      <path
         d="m 319.93092,112.28667 c 0,0.15994 -0.1389,0.3746 -0.41669,0.64398 -0.22729,0.49666 -0.42933,0.85443 -0.6061,1.0733 -0.38723,0.50508 -0.86285,0.80392 -1.42685,0.89652 -0.11786,0.0168 -0.2315,0.0252 -0.34093,0.0252 -0.47142,0 -1.05226,-0.22729 -1.74254,-0.68186 -0.59768,-0.40406 -0.89652,-1.33425 -0.89652,-2.79058 0,-1.0775 0.16416,-2.05399 0.49246,-2.92947 0.36197,-0.95123 0.80392,-1.44368 1.32584,-1.47736 0.41248,-0.0252 0.91756,0.0842 1.51524,0.3283 0.59768,0.24413 1.00174,0.51351 1.2122,0.80813 0.17677,0.24413 0.26516,0.56822 0.26517,0.97228 -1e-5,0.10944 -0.008,0.26939 -0.0253,0.47983 -0.0168,0.20204 -0.0211,0.34514 -0.0126,0.42932 0.0168,0.22729 0.0252,0.33252 0.0253,0.31568 -1e-5,0.26938 -0.13048,0.39986 -0.39144,0.39143 -0.30305,-0.008 -0.58926,-0.0547 -0.85864,-0.13889 -0.36198,-0.12627 -0.58084,-0.29884 -0.6566,-0.51771 -0.0253,-0.0758 0.008,-0.17678 0.10101,-0.30305 0.10102,-0.12627 0.14311,-0.23149 0.12627,-0.31568 0.0168,-0.0589 0.0253,-0.20623 0.0253,-0.44194 -10e-6,-0.50508 -0.0884,-0.76604 -0.26517,-0.78288 -0.26938,-0.0168 -0.49667,0.39145 -0.68186,1.22482 -0.16836,0.74079 -0.25254,1.54892 -0.25254,2.4244 0,1.03541 0.12206,1.58259 0.36618,1.64151 0.19361,0.0421 0.44615,-0.16836 0.75762,-0.63135 0.26096,-0.39565 0.39986,-0.66081 0.4167,-0.79551 0.0253,-0.1431 0.0463,-0.28621 0.0631,-0.42931 0.0589,-0.23571 0.21045,-0.34514 0.45458,-0.32831 0.15152,0.0168 0.41668,0.11365 0.7955,0.29042 0.37881,0.17679 0.57663,0.31147 0.59347,0.40407 0.0253,0.0842 0.0379,0.15574 0.0379,0.21466"
         style=""
         id="path3615" />
      <path
         d="m 324.87086,108.56169 c -0.008,0.15153 -0.0589,0.28622 -0.15153,0.40407 -0.0926,0.11786 -0.19362,0.17678 -0.30305,0.17678 -0.0337,0 -0.0631,-0.004 -0.0884,-0.0126 -0.11785,-0.0421 -0.38302,-0.0631 -0.7955,-0.0631 l 0,4.98769 c 0,-0.008 0.0252,0.0589 0.0758,0.20203 0.0589,0.1431 0.0884,0.26937 0.0884,0.37881 0,0.24412 -0.16836,0.3746 -0.50508,0.39144 -0.17678,0.008 -0.50088,-0.0674 -0.97228,-0.22729 -0.5135,-0.16836 -0.78709,-0.32409 -0.82076,-0.4672 -0.0168,-0.0589 0.0126,-0.18099 0.0884,-0.36618 0.0758,-0.19362 0.11364,-0.34093 0.11364,-0.44195 l 0,-4.46997 -0.42932,0 c -0.15994,0 -0.35776,-0.13889 -0.59347,-0.4167 -0.2357,-0.2862 -0.35356,-0.51349 -0.35356,-0.68186 0,-0.12626 0.0463,-0.2399 0.1389,-0.34093 0.10102,-0.101 0.21045,-0.15151 0.3283,-0.15152 l 0.90915,0 0,-1.13643 c -0.12627,-0.16836 -0.18941,-0.34934 -0.1894,-0.54297 -10e-6,-0.17677 0.0758,-0.2862 0.22728,-0.3283 0.0758,-0.0168 0.18099,-0.0252 0.31568,-0.0252 0.31146,1e-5 0.67344,0.0505 1.08592,0.15152 0.4209,0.0926 0.69449,0.18942 0.82076,0.29042 0.0589,0.0505 0.0884,0.10945 0.0884,0.17678 0,0.0842 -0.0673,0.21046 -0.20203,0.37881 -0.13469,0.16837 -0.20625,0.28622 -0.21466,0.35356 l 0,0.68186 0.40406,0 c 0.0842,1e-5 0.26096,0.15153 0.53034,0.45457 0.26937,0.30306 0.40406,0.51772 0.40407,0.64398"
         style=""
         id="path3617" />
    </g>
    <g
       id="g3876"
       style="fill:#ff00ff"
       transform="matrix(0.65534475,0,0,0.60823763,217.72133,39.078589)">
      <path
         inkscape:connector-curvature="0"
         d="m 140.16189,126.08088 c -2.29195,5.56775 -3.89078,11.43774 -4.92724,17.36627 -0.34911,1.99686 -0.58147,4.01239 -0.87221,6.01859 -1.03291,9.77879 -1.21363,19.63384 -0.22149,29.41698 0.67348,5.6813 2.62513,9.22397 6.22813,13.48134 1.18497,1.35025 2.61234,2.44082 3.99027,3.57956 0,0 -8.81378,5.49308 -8.81378,5.49308 l 0,0 c -1.36446,-1.21911 -2.76607,-2.40485 -3.96452,-3.79524 -3.69584,-4.48569 -5.6645,-8.23758 -6.25211,-14.16524 -0.29357,-3.45309 -0.41484,-4.19048 -0.46463,-7.75181 -0.10311,-7.37621 0.54693,-14.74204 1.04625,-22.09315 0.97013,-7.87515 2.20638,-15.6005 4.67259,-23.16413 0,0 9.57874,-4.38625 9.57874,-4.38625 z"
         id="path3844"
         style="fill:#ff00ff;fill-opacity:1;fill-rule:nonzero;stroke:none" />
      <path
         inkscape:connector-curvature="0"
         d="m 125.41201,138.3685 c 2.10341,-0.36012 4.02125,-1.08409 5.84834,-2.17622 -15.15149,8.02253 -9.20097,5.68745 -6.38456,3.47574 0.68512,-0.53802 1.27793,-1.18478 1.87376,-1.81615 0.80133,-0.99724 1.76107,-1.8535 2.57888,-2.83278 0.40731,-0.65882 0.22815,-0.31469 0.53608,-1.0331 0,0 9.5765,-4.49516 9.5765,-4.49516 l 0,0 c -0.22906,0.88206 -0.0905,0.45065 -0.41444,1.2946 -0.64864,1.16433 -1.70074,1.96639 -2.56544,2.96457 -3.44198,4.27376 -8.65763,6.30981 -13.36056,9.01844 -1.93765,0.96499 -3.98582,1.50961 -6.05872,2.10281 0,0 8.37016,-6.50275 8.37016,-6.50275 z"
         id="path3846"
         style="fill:#ff00ff;fill-opacity:1;fill-rule:nonzero;stroke:none" />
      <path
         inkscape:connector-curvature="0"
         d="m 140.43084,127.98563 c -0.0901,2.19473 -0.0544,4.39251 -0.0377,6.58843 -0.0621,1.43175 0.25004,2.8239 0.67509,4.17934 0.2916,1.36594 1.2648,2.25425 2.27198,3.12418 0.64796,0.52983 1.37381,0.93699 2.05676,1.41882 0,0 -8.88757,5.66333 -8.88757,5.66333 l 0,0 c -0.71485,-0.49425 -1.45736,-0.94983 -2.12793,-1.50517 -1.13421,-0.99007 -2.21551,-2.10227 -2.57916,-3.61523 -0.46842,-1.4573 -0.85835,-2.94871 -0.76692,-4.49726 0.0165,-2.18309 0.0533,-4.36817 -0.0377,-6.55002 0,0 9.43311,-4.80642 9.43311,-4.80642 z"
         id="path3848"
         style="fill:#ff00ff;fill-opacity:1;fill-rule:nonzero;stroke:none" />
    </g>
    <g
       id="g3881"
       transform="matrix(0.65534475,0,0,0.60823763,215.09995,39.078589)"
       style="fill:#ff00ff">
      <path
         inkscape:connector-curvature="0"
         d="m 155.6201,94.442221 c 3.44236,-3.225339 7.31388,-5.942872 11.15416,-8.664658 6.85055,-5.052889 13.93302,-9.771685 21.33764,-13.969818 1.4356,-0.731779 2.85407,-1.498176 4.3068,-2.19534 4.35568,-2.090294 8.70722,-4.192076 13.11675,-6.166232 1.50582,-0.674158 3.07051,-1.209222 4.6204,-1.774727 4.48899,-1.63788 9.02145,-2.948221 13.6442,-4.140776 8.43416,-1.756896 17.02489,-2.65622 25.61196,-3.233816 7.91408,-0.358791 15.85573,-0.364564 23.73475,0.508946 3.78941,0.431497 7.53866,1.007124 11.21929,2.003736 0.2819,0.07149 0.5638,0.142992 0.84569,0.214487 0,0 -9.03773,5.404097 -9.03773,5.404097 l 0,0 c -0.27463,-0.08015 -0.54926,-0.160289 -0.82389,-0.240433 -3.50183,-1.042064 -7.09624,-1.645922 -10.71901,-2.109425 -7.78451,-0.877111 -15.63446,-0.902787 -23.45306,-0.473198 -8.5376,0.64183 -17.09118,1.509697 -25.46427,3.352461 -4.57978,1.212988 -9.07495,2.532214 -13.51807,4.190226 -1.54346,0.575963 -3.27584,2.792801 -4.59858,1.810794 -1.2407,-0.921103 5.58506,-1.823301 4.08455,-2.192411 -1.5506,-0.381431 -2.85619,1.428853 -4.28428,2.14328 -7.34571,4.091683 -14.37024,8.721709 -21.08904,13.780857 -3.67486,2.621496 -7.38245,5.223554 -10.69322,8.306283 0,0 -9.99504,3.445667 -9.99504,3.445667 z"
         id="path3824"
         style="fill:#ff00ff;fill-opacity:1;fill-rule:nonzero;stroke:none" />
      <path
         inkscape:connector-curvature="0"
         d="m 270.84865,62.649795 c -1.53957,-1.77124 -1.88082,-4.108977 -2.35101,-6.325042 -0.47546,-2.064009 -0.80056,-4.154654 -0.9707,-6.264805 -0.0596,-1.059359 -0.0354,-0.53525 -0.0733,-1.572295 0,0 9.38876,-4.81614 9.38876,-4.81614 l 0,0 c 0.0182,1.018557 0.005,0.504163 0.0392,1.543169 0.10937,2.077425 0.35119,4.144707 0.80711,6.177303 0.44247,2.001637 0.66194,4.210232 2.20774,5.713342 0,0 -9.04775,5.544468 -9.04775,5.544468 z"
         id="path3850"
         style="fill:#ff00ff;fill-opacity:1;fill-rule:nonzero;stroke:none" />
      <path
         inkscape:connector-curvature="0"
         d="m 275.30227,63.784438 c -2.04672,0.705192 -4.09548,1.415087 -6.19606,1.943823 -0.84112,0.276827 -1.62752,0.59192 -2.39945,1.016263 -0.20087,0.110422 -0.80902,0.431108 -0.61048,0.316534 9.76699,-5.636558 11.16907,-6.500743 7.86126,-4.480434 -1.17566,0.793627 -2.21801,1.762739 -3.41115,2.529057 0,0 -9.84292,3.888375 -9.84292,3.888375 l 0,0 c 1.11399,-0.879648 2.39144,-1.553773 3.4246,-2.554483 3.97077,-3.061642 8.46553,-5.673681 13.29219,-7.095174 2.11089,-0.601888 4.19117,-1.312532 6.25218,-2.06671 0,0 -8.37017,6.502749 -8.37017,6.502749 z"
         id="path3852"
         style="fill:#ff00ff;fill-opacity:1;fill-rule:nonzero;stroke:none" />
    </g>
    <g
       id="g3871"
       transform="matrix(0.65534475,0,0,0.60823763,219.03203,35.429163)"
       style="fill:#ff00ff">
      <path
         inkscape:connector-curvature="0"
         d="m 317.041,78.843257 c 2.32238,0.88673 4.47953,2.122192 6.61621,3.388196 4.06802,2.233937 7.47696,5.284362 10.58906,8.687786 4.20375,5.141954 7.73779,10.818161 11.00457,16.591561 3.58406,7.03035 6.99859,14.14767 10.36935,21.28272 3.29922,6.55893 5.32554,13.57867 6.72834,20.75342 0.69403,4.1001 1.00869,8.24928 1.29435,12.39341 0,0 -9.00209,4.65045 -9.00209,4.65045 l 0,0 c -0.17827,-4.12551 -0.41515,-8.25552 -1.12045,-12.33166 -1.35333,-7.1131 -3.268,-14.10219 -6.34949,-20.68298 -3.31674,-7.13196 -7.11856,-14.0137 -10.65213,-21.03911 -3.17881,-5.73619 -6.52485,-11.4466 -10.90663,-16.363747 -3.15623,-3.267969 -6.59037,-6.193372 -10.65579,-8.287116 -2.1527,-1.190931 -4.30748,-2.405973 -6.68631,-3.091889 0,0 8.77101,-5.951041 8.77101,-5.951041 z"
         id="path3832"
         style="fill:#ff00ff;fill-opacity:1;fill-rule:nonzero;stroke:none" />
      <path
         inkscape:connector-curvature="0"
         d="m 354.84769,163.91665 c 2.8217,-3.88676 5.99101,-7.47408 9.26311,-10.98316 1.49686,-1.73787 3.17696,-3.2847 4.9144,-4.77304 0,0 9.55365,-3.84511 9.55365,-3.84511 l 0,0 c -1.84406,1.43676 -3.63097,2.93429 -5.15311,4.72421 -3.18179,3.37985 -6.4151,6.75999 -8.84759,10.74287 0,0 -9.73046,4.13423 -9.73046,4.13423 z"
         id="path3854"
         style="fill:#ff00ff;fill-opacity:1;fill-rule:nonzero;stroke:none" />
      <path
         inkscape:connector-curvature="0"
         d="m 354.37133,162.69608 c -2.23368,-2.81521 -4.68675,-5.43003 -7.2725,-7.92108 -1.89941,-1.78424 -3.82685,-3.63432 -6.26665,-4.63689 0,0 8.77391,-5.80572 8.77391,-5.80572 l 0,0 c 2.40322,1.25469 4.34704,3.16111 6.25762,5.05764 2.53774,2.51573 4.94417,5.15699 7.48198,7.66902 0,0 -8.97436,5.63703 -8.97436,5.63703 z"
         id="path3856"
         style="fill:#ff00ff;fill-opacity:1;fill-rule:nonzero;stroke:none" />
    </g>
    <g
       id="g3866"
       transform="matrix(0.65534475,0,0,0.60823763,221.6534,41.51154)"
       style="fill:#ff00ff">
      <path
         inkscape:connector-curvature="0"
         d="m 302.45744,252.31815 c 0.40017,-0.1969 0.7917,-0.41243 1.20052,-0.5907 3.59488,-1.56765 7.18662,-3.14369 10.80912,-4.64644 0.94177,-0.39068 1.95988,-0.56805 2.91934,-0.91302 1.03059,-0.37055 1.9452,-0.79871 2.94737,-1.24279 -2.55495,1.06874 -5.07265,2.2313 -7.66485,3.20624 -0.6359,0.23917 1.19496,-0.64744 1.77996,-0.99289 2.84095,-1.6776 5.49,-3.63598 8.09798,-5.64901 4.01536,-3.26467 7.71646,-6.91546 11.02654,-10.89106 2.64106,-3.32696 4.34558,-7.18621 5.9174,-11.09307 1.69692,-4.60482 3.56502,-9.14232 5.34809,-13.71327 1.18775,-3.0892 1.94779,-6.31006 2.56396,-9.55383 0,0 9.7624,-3.52257 9.7624,-3.52257 l 0,0 c -0.69943,3.30679 -1.49785,6.59775 -2.65713,9.77841 -1.80085,4.55905 -3.72374,9.06932 -5.32473,13.7057 -1.53941,4.01202 -3.19962,7.9738 -5.85011,11.40636 -3.28097,4.07105 -7.03812,7.73557 -11.01939,11.12157 -6.38965,5.09727 -12.77678,9.08217 -20.73386,11.7313 -1.47615,0.61384 -2.95142,1.12852 -4.46163,1.64735 -0.48591,0.16694 -1.91826,0.73437 -1.44977,0.52341 2.31527,-1.04259 11.6286,-5.08898 6.99352,-3.01959 0,0 -10.20473,2.7079 -10.20473,2.7079 z"
         id="path3830"
         style="fill:#ff00ff;fill-opacity:1;fill-rule:nonzero;stroke:none" />
      <path
         inkscape:connector-curvature="0"
         d="m 305.3739,253.24524 c 0.64485,-1.69423 1.36907,-3.35281 2.28953,-4.91581 0.61739,-1.06411 1.47013,-1.95289 2.23201,-2.90935 0.77733,-0.91841 1.32998,-1.86272 1.60892,-3.03382 0.20449,-0.91243 0.0964,-0.45857 0.32411,-1.36161 0,0 9.52851,-4.5662 9.52851,-4.5662 l 0,0 c -0.21688,0.88571 -0.10303,0.45246 -0.34006,1.30013 -0.17955,1.26703 -0.45675,2.51364 -1.41899,3.43349 -0.63415,1.06213 -1.52067,1.8996 -2.28871,2.85875 -0.90681,1.50412 -1.80941,2.9966 -2.34135,4.68873 0,0 -9.59397,4.50569 -9.59397,4.50569 z"
         id="path3858"
         style="fill:#ff00ff;fill-opacity:1;fill-rule:nonzero;stroke:none" />
      <path
         inkscape:connector-curvature="0"
         d="m 314.9454,247.10253 c 2.23998,0.11151 4.48526,0.33474 6.6452,0.9553 2.03821,0.52031 3.76482,1.84226 5.3757,3.14903 0.81747,0.84638 0.4211,0.44584 1.18673,1.20395 0,0 -8.99942,5.50598 -8.99942,5.50598 l 0,0 c -0.71831,-0.74653 -0.35466,-0.37323 -1.09111,-1.11972 -1.52873,-1.21505 -3.15542,-2.37431 -5.09448,-2.80336 -2.15933,-0.49888 -4.38469,-0.7358 -6.60242,-0.65759 0,0 8.5798,-6.23359 8.5798,-6.23359 z"
         id="path3860"
         style="fill:#ff00ff;fill-opacity:1;fill-rule:nonzero;stroke:none" />
    </g>
    <g
       id="g3886"
       style="fill:#ff00ff"
       transform="matrix(0.65534475,0,0,0.60823763,217.72133,39.078589)">
      <path
         inkscape:connector-curvature="0"
         d="m 165.67353,230.01094 c 2.50031,3.71088 5.69857,6.83527 9.02619,9.79234 4.90561,4.35735 10.46405,7.85096 15.98846,11.35206 4.55054,2.98991 9.58259,5.05478 14.59574,7.11156 5.26534,2.28452 10.80086,3.73055 16.42951,4.76367 6.8205,1.03834 13.73416,1.15472 20.61892,1.25136 4.16894,0.13749 8.32257,-0.10779 12.47632,-0.41886 0,0 -8.30143,6.11517 -8.30143,6.11517 l 0,0 c -4.08078,0.23136 -8.1612,0.31754 -12.24784,0.14926 -6.94327,-0.12547 -13.91396,-0.26447 -20.78956,-1.3365 -5.69082,-1.07505 -11.28726,-2.56534 -16.60971,-4.89071 -5.05527,-2.06735 -10.11044,-4.20375 -14.64452,-7.29758 -5.52952,-3.57195 -11.04284,-7.19979 -16.0517,-11.49022 -3.44206,-2.9668 -6.68052,-6.13028 -9.55446,-9.65949 0,0 9.06408,-5.44206 9.06408,-5.44206 z"
         id="path3828"
         style="fill:#ff00ff;fill-opacity:1;fill-rule:nonzero;stroke:none" />
      <path
         inkscape:connector-curvature="0"
         d="m 158.84677,255.68544 c 0.0571,-2.01638 0.0446,-4.03388 0.0733,-6.05091 -0.002,-2.15919 0.13915,-4.34463 -0.15286,-6.49396 -0.10559,-0.77714 -0.41153,-1.81128 -0.61703,-2.56887 -0.64615,-2.20109 -1.04555,-4.46105 -1.28354,-6.73958 -0.0221,-0.28996 -0.0442,-0.57992 -0.0662,-0.86987 0,0 9.35323,-4.83896 9.35323,-4.83896 l 0,0 c 0.0135,0.28376 0.0271,0.56753 0.0406,0.8513 0.16425,2.23772 0.48708,4.46159 1.12437,6.61882 0.22164,0.83563 0.53597,1.92329 0.65025,2.77491 0.28956,2.15793 0.18581,4.3572 0.2539,6.52626 0.0288,1.99213 0.0158,3.98475 0.0733,5.9762 0,0 -9.44932,4.81466 -9.44932,4.81466 z"
         id="path3862"
         style="fill:#ff00ff;fill-opacity:1;fill-rule:nonzero;stroke:none" />
      <path
         inkscape:connector-curvature="0"
         d="m 166.23112,227.81682 c 2.37871,0.42122 4.79783,0.55521 7.20769,0.66019 2.13538,-0.0762 4.22795,0.30437 6.33641,0.56457 1.46047,0.17172 2.93161,0.20016 4.40034,0.21699 1.41908,0.009 2.8382,0.005 4.25729,0.003 0.92453,-0.009 1.83254,0.0747 2.73284,-0.15059 0,0 -8.47354,6.33413 -8.47354,6.33413 l 0,0 c -0.93446,0.0331 -1.86896,0.0254 -2.80396,0.0262 -1.42329,0.002 -2.84675,0.006 -4.26988,-0.0197 -1.48715,-0.0387 -2.97501,-0.1106 -4.44826,-0.3306 -2.05494,-0.29555 -4.10696,-0.56561 -6.18924,-0.56079 -2.44736,-0.13002 -4.88449,-0.37562 -7.32949,-0.50948 0,0 8.5798,-6.23358 8.5798,-6.23358 z"
         id="path3864"
         style="fill:#ff00ff;fill-opacity:1;fill-rule:nonzero;stroke:none" />
    </g>
  </g>
</svg>
